<?xml version="1.0" standalone="no"?><!DOCTYPE svg PUBLIC "-//W3C//DTD SVG 1.1//EN" "http://www.w3.org/Graphics/SVG/1.1/DTD/svg11.dtd"><svg t="1514864281810" class="icon" style="" viewBox="0 0 1024 1024" version="1.1" xmlns="http://www.w3.org/2000/svg" p-id="3082" xmlns:xlink="http://www.w3.org/1999/xlink" width="200" height="200"><defs><style type="text/css"></style></defs><path d="M512.1 448.8m-426 0a426 426 0 1 0 852 0 426 426 0 1 0-852 0Z" fill="#F2CF3D" p-id="3083"></path><path d="M512.1 884.8c-58.9 0-116-11.5-169.7-34.3-51.9-22-98.5-53.4-138.6-93.4-40-40-71.5-86.7-93.4-138.6-22.7-53.8-34.3-110.9-34.3-169.7s11.5-116 34.3-169.7c22-51.9 53.4-98.5 93.4-138.6S290.5 69 342.4 47c53.8-22.7 110.9-34.3 169.7-34.3s116 11.5 169.7 34.3c51.9 22 98.5 53.4 138.6 93.4 40 40 71.5 86.7 93.4 138.6 22.7 53.8 34.3 110.9 34.3 169.7s-11.5 116-34.3 169.7c-22 51.9-53.4 98.5-93.4 138.6-40 40-86.7 71.5-138.6 93.4-53.7 22.8-110.8 34.4-169.7 34.4z m0-852c-56.2 0-110.6 11-161.9 32.7-49.5 21-94 50.9-132.2 89.2-38.2 38.2-68.2 82.7-89.2 132.2-21.7 51.3-32.7 105.8-32.7 161.9s11 110.6 32.7 161.9c21 49.5 50.9 94 89.2 132.2 38.2 38.2 82.7 68.2 132.2 89.2 51.3 21.7 105.8 32.7 161.9 32.7 56.2 0 110.6-11 161.9-32.7 49.5-21 94-50.9 132.2-89.2 38.2-38.2 68.2-82.7 89.2-132.2 21.7-51.3 32.7-105.8 32.7-161.9s-11-110.6-32.7-161.9c-21-49.5-50.9-94-89.2-132.2C768 116.4 723.6 86.4 674 65.5c-51.3-21.7-105.7-32.7-161.9-32.7z" fill="#231815" p-id="3084"></path><path d="M512.1 414.6m-391.8 0a391.8 391.8 0 1 0 783.6 0 391.8 391.8 0 1 0-783.6 0Z" fill="#FFE20D" p-id="3085"></path><path d="M512.1 884.8c-58.9 0-116-11.5-169.7-34.3-51.9-22-98.5-53.4-138.6-93.4-40-40-71.5-86.7-93.4-138.6-22.7-53.8-34.3-110.9-34.3-169.7s11.5-116 34.3-169.7c22-51.9 53.4-98.5 93.4-138.6S290.5 69 342.4 47c53.8-22.7 110.9-34.3 169.7-34.3s116 11.5 169.7 34.3c51.9 22 98.5 53.4 138.6 93.4 40 40 71.5 86.7 93.4 138.6 22.7 53.8 34.3 110.9 34.3 169.7s-11.5 116-34.3 169.7c-22 51.9-53.4 98.5-93.4 138.6-40 40-86.7 71.5-138.6 93.4-53.7 22.8-110.8 34.4-169.7 34.4z m0-852c-56.2 0-110.6 11-161.9 32.7-49.5 21-94 50.9-132.2 89.2-38.2 38.2-68.2 82.7-89.2 132.2-21.7 51.3-32.7 105.8-32.7 161.9s11 110.6 32.7 161.9c21 49.5 50.9 94 89.2 132.2 38.2 38.2 82.7 68.2 132.2 89.2 51.3 21.7 105.8 32.7 161.9 32.7 56.2 0 110.6-11 161.9-32.7 49.5-21 94-50.9 132.2-89.2 38.2-38.2 68.2-82.7 89.2-132.2 21.7-51.3 32.7-105.8 32.7-161.9s-11-110.6-32.7-161.9c-21-49.5-50.9-94-89.2-132.2C768 116.4 723.6 86.4 674 65.5c-51.3-21.7-105.7-32.7-161.9-32.7z" fill="#231815" p-id="3086"></path><path d="M376.8 125.3a135.3 43.8 0 1 0 270.6 0 135.3 43.8 0 1 0-270.6 0Z" fill="#FFF0B3" p-id="3087"></path><path d="M499.5 739.9c-21.3 0-43-3.3-64.6-9.9-5.3-1.6-8.3-7.2-6.6-12.5 1.6-5.3 7.2-8.3 12.5-6.6 39.4 12.1 79.5 12 115.9-0.2 36.4-12.2 68.4-36.3 92.5-69.7 3.2-4.5 9.5-5.5 14-2.2 4.5 3.2 5.5 9.5 2.2 14-26.6 36.8-62 63.4-102.4 77-20.3 6.7-41.7 10.1-63.5 10.1z" fill="#231815" p-id="3088"></path><path d="M228.3 554.5a50.4 31.2 0 1 0 100.8 0 50.4 31.2 0 1 0-100.8 0Z" fill="#FFA178" p-id="3089"></path><path d="M695.1 554.5a50.4 31.2 0 1 0 100.8 0 50.4 31.2 0 1 0-100.8 0Z" fill="#FFA178" p-id="3090"></path><path d="M179.5 969.6a332.6 34 0 1 0 665.2 0 332.6 34 0 1 0-665.2 0Z" fill="#E5E5E5" p-id="3091"></path><path d="M147.1 397.3c-1.8 0-3.6-0.5-5.3-1.5-4.7-2.9-6.1-9.1-3.2-13.8 24.1-38.5 57.6-67.5 96.9-83.8 39.3-16.3 83.5-19.4 127.8-9.2 5.4 1.2 8.7 6.6 7.5 12-1.2 5.4-6.6 8.7-12 7.5-40.2-9.3-80.2-6.5-115.6 8.2-35.5 14.7-65.7 40.9-87.6 75.9-1.9 3.1-5.2 4.7-8.5 4.7zM840.5 397.3c-3.3 0-6.6-1.7-8.5-4.7-21.8-35-52.1-61.2-87.6-75.9-35.5-14.7-75.4-17.5-115.6-8.2-5.4 1.2-10.8-2.1-12-7.5-1.2-5.4 2.1-10.8 7.5-12 44.3-10.3 88.5-7.1 127.8 9.2 39.3 16.3 72.8 45.2 96.9 83.8 2.9 4.7 1.5 10.9-3.2 13.8-1.7 1-3.5 1.5-5.3 1.5zM310.1 399.1c-1.2-0.3-2.3-0.5-3.6-0.5h-93.6c-7.8 0-14.1 6.4-14.1 14.1s6.4 14.1 14.1 14.1l66.5 11.9c4.5 9.6 14.2 16.4 25.6 16.4 15.6 0 28.3-12.7 28.3-28.3 0-13.8-10-25.3-23.2-27.7zM746.3 399.1c-1.2-0.3-2.3-0.5-3.6-0.5h-93.6c-7.8 0-14.1 6.4-14.1 14.1s6.4 14.1 14.1 14.1l66.5 11.9c4.5 9.6 14.2 16.4 25.6 16.4 15.6 0 28.3-12.7 28.3-28.3 0-13.8-10-25.3-23.2-27.7z" fill="#231815" p-id="3092"></path></svg>