<?xml version="1.0" standalone="no"?><!DOCTYPE svg PUBLIC "-//W3C//DTD SVG 1.1//EN" "http://www.w3.org/Graphics/SVG/1.1/DTD/svg11.dtd"><svg t="1514864235871" class="icon" style="" viewBox="0 0 1024 1024" version="1.1" xmlns="http://www.w3.org/2000/svg" p-id="2091" xmlns:xlink="http://www.w3.org/1999/xlink" width="200" height="200"><defs><style type="text/css"></style></defs><path d="M496.4 449m-424.7 0a424.7 424.7 0 1 0 849.4 0 424.7 424.7 0 1 0-849.4 0Z" fill="#F2CF3D" p-id="2092"></path><path d="M496.4 884.1c-58.7 0-115.7-11.5-169.4-34.2-51.8-21.9-98.4-53.3-138.3-93.3s-71.3-86.5-93.3-138.3C72.7 564.7 61.2 507.7 61.2 449s11.5-115.7 34.2-169.4c21.9-51.8 53.3-98.4 93.3-138.3 40-40 86.5-71.3 138.3-93.3 53.7-22.7 110.7-34.2 169.4-34.2S612.1 25.3 665.8 48c51.8 21.9 98.4 53.3 138.3 93.3 40 40 71.3 86.5 93.3 138.3 22.7 53.7 34.2 110.7 34.2 169.4S920 564.7 897.3 618.4c-21.9 51.8-53.3 98.4-93.3 138.3S717.5 828 665.7 850c-53.6 22.6-110.6 34.1-169.3 34.1z m0-849.3c-55.9 0-110.2 10.9-161.2 32.5-49.3 20.9-93.6 50.7-131.7 88.8-38 38-67.9 82.3-88.8 131.7C93.1 338.8 82.2 393 82.2 449s10.9 110.2 32.5 161.2c20.9 49.3 50.7 93.6 88.8 131.7 38 38 82.3 67.9 131.7 88.8 51.1 21.6 105.3 32.5 161.2 32.5 55.9 0 110.2-10.9 161.2-32.5 49.3-20.9 93.6-50.7 131.7-88.8 38-38 67.9-82.3 88.8-131.7 21.6-51.1 32.5-105.3 32.5-161.2s-11-110.2-32.6-161.3c-20.9-49.3-50.7-93.6-88.8-131.7-38-38-82.3-67.9-131.7-88.8-51-21.5-105.2-32.4-161.1-32.4z" fill="#231815" p-id="2093"></path><path d="M496.4 414.9m-390.6 0a390.6 390.6 0 1 0 781.2 0 390.6 390.6 0 1 0-781.2 0Z" fill="#FFE20D" p-id="2094"></path><path d="M496.4 884.1c-58.7 0-115.7-11.5-169.4-34.2-51.8-21.9-98.4-53.3-138.3-93.3s-71.3-86.5-93.3-138.3C72.7 564.7 61.2 507.7 61.2 449s11.5-115.7 34.2-169.4c21.9-51.8 53.3-98.4 93.3-138.3 40-40 86.5-71.3 138.3-93.3 53.7-22.7 110.7-34.2 169.4-34.2S612.1 25.3 665.8 48c51.8 21.9 98.4 53.3 138.3 93.3 40 40 71.3 86.5 93.3 138.3 22.7 53.7 34.2 110.7 34.2 169.4S920 564.7 897.3 618.4c-21.9 51.8-53.3 98.4-93.3 138.3S717.5 828 665.7 850c-53.6 22.6-110.6 34.1-169.3 34.1z m0-849.3c-55.9 0-110.2 10.9-161.2 32.5-49.3 20.9-93.6 50.7-131.7 88.8-38 38-67.9 82.3-88.8 131.7C93.1 338.8 82.2 393 82.2 449s10.9 110.2 32.5 161.2c20.9 49.3 50.7 93.6 88.8 131.7 38 38 82.3 67.9 131.7 88.8 51.1 21.6 105.3 32.5 161.2 32.5 55.9 0 110.2-10.9 161.2-32.5 49.3-20.9 93.6-50.7 131.7-88.8 38-38 67.9-82.3 88.8-131.7 21.6-51.1 32.5-105.3 32.5-161.2s-11-110.2-32.6-161.3c-20.9-49.3-50.7-93.6-88.8-131.7-38-38-82.3-67.9-131.7-88.8-51-21.5-105.2-32.4-161.1-32.4z" fill="#231815" p-id="2095"></path><path d="M361.5 126.5a134.9 43.6 0 1 0 269.8 0 134.9 43.6 0 1 0-269.8 0Z" fill="#FFF0B3" p-id="2096"></path><path d="M496.4 618.3c-68.7 0-133-8.2-188.3-22.4-19.9-5.1-38.8 11.9-34.5 31.3C295.4 726.5 386.8 801 496.4 801s201-74.5 222.9-173.7c4.3-19.4-14.6-36.4-34.5-31.3-55.5 14.2-119.8 22.3-188.4 22.3z" fill="#FFA6D7" p-id="2097"></path><path d="M496.4 811.5c-54.9 0-108.4-18.4-150.8-51.9-41.9-33.1-71.1-79.3-82.3-130.1-2.7-12.4 1.2-25.1 10.5-34 9.8-9.5 23.6-13.1 36.9-9.7 56.1 14.4 120.3 22 185.7 22 65.4 0 129.6-7.6 185.7-22 13.3-3.4 27.1 0.2 36.9 9.7 9.3 9 13.2 21.7 10.5 34-11.2 50.8-40.4 97-82.3 130.1-42.4 33.5-96 51.9-150.8 51.9zM300.8 605.6c-4.6 0-9.1 1.8-12.5 5.1-4 3.9-5.7 9.2-4.6 14.4 10.1 46.1 36.7 88 74.8 118.1 38.7 30.6 87.6 47.4 137.8 47.4 50.2 0 99.1-16.8 137.8-47.4 38.1-30.1 64.6-72 74.8-118.1 1.2-5.3-0.5-10.5-4.6-14.4-4.5-4.4-10.9-6.1-17.1-4.5-57.8 14.8-123.8 22.7-190.9 22.7-67.1 0-133.1-7.8-190.9-22.7-1.5-0.5-3.1-0.6-4.6-0.6z" fill="#231815" p-id="2098"></path><path d="M642.9 749.5c-39.6-32.1-90.7-51.5-146.6-51.5s-106.9 19.4-146.6 51.5c39.6 32.1 90.7 51.5 146.6 51.5s107-19.4 146.6-51.5z" fill="#FF66C1" p-id="2099"></path><path d="M496.4 811.5c-55.9 0-110.3-19.1-153.2-53.8-2.5-2-3.9-5-3.9-8.2s1.4-6.2 3.9-8.2c42.8-34.7 97.2-53.8 153.2-53.8s110.3 19.1 153.2 53.8c2.5 2 3.9 5 3.9 8.2s-1.4 6.2-3.9 8.2c-42.9 34.7-97.3 53.8-153.2 53.8z m-129.3-62c37.3 26.5 82.6 41 129.2 41s91.9-14.5 129.2-41c-37.3-26.5-82.6-41-129.2-41s-91.9 14.5-129.2 41z" fill="#231815" p-id="2100"></path><path d="M213.4 554.3a50.3 31.1 0 1 0 100.6 0 50.3 31.1 0 1 0-100.6 0Z" fill="#FFA178" p-id="2101"></path><path d="M678.8 554.3a50.3 31.1 0 1 0 100.6 0 50.3 31.1 0 1 0-100.6 0Z" fill="#FFA178" p-id="2102"></path><path d="M164.8 968.2a331.6 33.9 0 1 0 663.2 0 331.6 33.9 0 1 0-663.2 0Z" fill="#E5E5E5" p-id="2103"></path><path d="M298.3 468.1c-5.8 0-10.5-4.7-10.5-10.5 0-13.3-10.8-24.2-24.2-24.2-13.3 0-24.2 10.8-24.2 24.2 0 5.8-4.7 10.5-10.5 10.5s-10.5-4.7-10.5-10.5c0-24.9 20.3-45.2 45.2-45.2 24.9 0 45.2 20.3 45.2 45.2 0 5.8-4.7 10.5-10.5 10.5zM763.7 468.1c-5.8 0-10.5-4.7-10.5-10.5 0-13.3-10.8-24.2-24.2-24.2-13.3 0-24.2 10.8-24.2 24.2 0 5.8-4.7 10.5-10.5 10.5s-10.5-4.7-10.5-10.5c0-24.9 20.3-45.2 45.2-45.2s45.2 20.3 45.2 45.2c0 5.8-4.7 10.5-10.5 10.5z" fill="#231815" p-id="2104"></path><path d="M951 627.6c0 44.7-36.3 81-81 81s-81-36.3-81-81 81-173.2 81-173.2 81 128.5 81 173.2z" fill="#17B4CE" p-id="2105"></path><path d="M870 719.1c-50.5 0-91.5-41-91.5-91.5 0-20.6 13.7-56 41.7-108.4 20.2-37.6 40.7-70.1 40.9-70.5 1.9-3.1 5.3-4.9 8.9-4.9s7 1.9 8.9 4.9c0.2 0.3 20.7 32.9 40.9 70.5 28.1 52.3 41.7 87.8 41.7 108.4 0 50.5-41 91.5-91.5 91.5z m0-244.7c-25.6 42.4-70.5 123-70.5 153.2 0 38.9 31.6 70.5 70.5 70.5s70.5-31.6 70.5-70.5c0-30.2-44.9-110.8-70.5-153.2z" fill="#231815" p-id="2106"></path><path d="M951 605.2c0 38.9-36.3 70.5-81 70.5s-81-31.6-81-70.5 81-150.7 81-150.7 81 111.7 81 150.7z" fill="#16CEF9" p-id="2107"></path><path d="M870 719.1c-50.5 0-91.5-41-91.5-91.5 0-20.6 13.7-56 41.7-108.4 20.2-37.6 40.7-70.1 40.9-70.5 1.9-3.1 5.3-4.9 8.9-4.9s7 1.9 8.9 4.9c0.2 0.3 20.7 32.9 40.9 70.5 28.1 52.3 41.7 87.8 41.7 108.4 0 50.5-41 91.5-91.5 91.5z m0-244.7c-25.6 42.4-70.5 123-70.5 153.2 0 38.9 31.6 70.5 70.5 70.5s70.5-31.6 70.5-70.5c0-30.2-44.9-110.8-70.5-153.2z" fill="#231815" p-id="2108"></path></svg>