<?xml version="1.0" standalone="no"?><!DOCTYPE svg PUBLIC "-//W3C//DTD SVG 1.1//EN" "http://www.w3.org/Graphics/SVG/1.1/DTD/svg11.dtd"><svg t="1514864319621" class="icon" style="" viewBox="0 0 1024 1024" version="1.1" xmlns="http://www.w3.org/2000/svg" p-id="4575" xmlns:xlink="http://www.w3.org/1999/xlink" width="200" height="200"><defs><style type="text/css"></style></defs><path d="M511.3 447.9m-422.1 0a422.1 422.1 0 1 0 844.2 0 422.1 422.1 0 1 0-844.2 0Z" fill="#F2CF3D" p-id="4576"></path><path d="M511.3 880c-58.3 0-114.9-11.4-168.2-34-51.5-21.8-97.7-52.9-137.4-92.6-39.7-39.7-70.8-85.9-92.6-137.4-22.5-53.3-34-109.9-34-168.2 0-58.3 11.4-114.9 34-168.2 21.8-51.5 52.9-97.7 92.6-137.4 39.7-39.7 85.9-70.8 137.4-92.6 53.3-22.5 109.9-34 168.2-34 58.3 0 114.9 11.4 168.2 34 51.5 21.8 97.7 52.9 137.4 92.6 39.7 39.7 70.8 85.9 92.6 137.4 22.5 53.3 34 109.9 34 168.2s-11.4 114.9-34 168.2c-21.8 51.5-52.9 97.7-92.6 137.4S731 824.2 679.5 846c-53.2 22.6-109.8 34-168.2 34z m0-844.2c-55.6 0-109.6 10.9-160.4 32.4-49.1 20.8-93.1 50.5-131 88.3s-67.6 81.9-88.3 131c-21.5 50.8-32.4 104.8-32.4 160.4s10.9 109.6 32.4 160.4c20.8 49.1 50.5 93.2 88.3 131 37.9 37.9 81.9 67.6 131 88.3 50.8 21.5 104.8 32.4 160.4 32.4 55.6 0 109.6-10.9 160.4-32.4 49.1-20.8 93.2-50.5 131-88.3 37.9-37.9 67.6-81.9 88.3-131 21.5-50.8 32.4-104.8 32.4-160.4S912.5 338.3 891 287.5c-20.8-49.1-50.5-93.1-88.3-131-37.9-37.9-81.9-67.6-131-88.3C620.9 46.7 567 35.8 511.3 35.8z" fill="#231815" p-id="4577"></path><path d="M511.3 414m-388.3 0a388.3 388.3 0 1 0 776.6 0 388.3 388.3 0 1 0-776.6 0Z" fill="#FFE20D" p-id="4578"></path><path d="M511.3 880c-58.3 0-114.9-11.4-168.2-34-51.5-21.8-97.7-52.9-137.4-92.6-39.7-39.7-70.8-85.9-92.6-137.4-22.5-53.3-34-109.9-34-168.2 0-58.3 11.4-114.9 34-168.2 21.8-51.5 52.9-97.7 92.6-137.4 39.7-39.7 85.9-70.8 137.4-92.6 53.3-22.5 109.9-34 168.2-34 58.3 0 114.9 11.4 168.2 34 51.5 21.8 97.7 52.9 137.4 92.6 39.7 39.7 70.8 85.9 92.6 137.4 22.5 53.3 34 109.9 34 168.2s-11.4 114.9-34 168.2c-21.8 51.5-52.9 97.7-92.6 137.4S731 824.2 679.5 846c-53.2 22.6-109.8 34-168.2 34z m0-844.2c-55.6 0-109.6 10.9-160.4 32.4-49.1 20.8-93.1 50.5-131 88.3s-67.6 81.9-88.3 131c-21.5 50.8-32.4 104.8-32.4 160.4s10.9 109.6 32.4 160.4c20.8 49.1 50.5 93.2 88.3 131 37.9 37.9 81.9 67.6 131 88.3 50.8 21.5 104.8 32.4 160.4 32.4 55.6 0 109.6-10.9 160.4-32.4 49.1-20.8 93.2-50.5 131-88.3 37.9-37.9 67.6-81.9 88.3-131 21.5-50.8 32.4-104.8 32.4-160.4S912.5 338.3 891 287.5c-20.8-49.1-50.5-93.1-88.3-131-37.9-37.9-81.9-67.6-131-88.3C620.9 46.7 567 35.8 511.3 35.8z" fill="#231815" p-id="4579"></path><path d="M377.2 127.3a134.1 43.4 0 1 0 268.2 0 134.1 43.4 0 1 0-268.2 0Z" fill="#FFF0B3" p-id="4580"></path><path d="M230 552.6a50 30.9 0 1 0 100 0 50 30.9 0 1 0-100 0Z" fill="#FFA178" p-id="4581"></path><path d="M692.6 552.6a50 30.9 0 1 0 100 0 50 30.9 0 1 0-100 0Z" fill="#FFA178" p-id="4582"></path><path d="M181.7 964a329.6 33.7 0 1 0 659.2 0 329.6 33.7 0 1 0-659.2 0Z" fill="#E5E5E5" p-id="4583"></path><path d="M314.5 466.5c-5.5 0-10-4.5-10-10 0-13.5-11-24.5-24.5-24.5s-24.5 11-24.5 24.5c0 5.5-4.5 10-10 10s-10-4.5-10-10c0-24.5 19.9-44.5 44.5-44.5s44.5 19.9 44.5 44.5c0 5.5-4.5 10-10 10zM777.1 466.5c-5.5 0-10-4.5-10-10 0-13.5-11-24.5-24.5-24.5s-24.5 11-24.5 24.5c0 5.5-4.5 10-10 10s-10-4.5-10-10c0-24.5 19.9-44.5 44.5-44.5s44.5 19.9 44.5 44.5c0 5.5-4.5 10-10 10z" fill="#231815" p-id="4584"></path><path d="M511.3 707.5c-50.1 0-97.7-20.5-127.4-54.8-3.6-4.2-3.2-10.5 1-14.1 4.2-3.6 10.5-3.2 14.1 1 26 30 67.9 47.9 112.3 47.9 44.4 0 86.4-17.9 112.3-47.9 3.6-4.2 9.9-4.6 14.1-1 4.2 3.6 4.6 9.9 1 14.1-29.6 34.3-77.3 54.8-127.4 54.8z" fill="#231815" p-id="4585"></path></svg>