<?xml version="1.0" standalone="no"?><!DOCTYPE svg PUBLIC "-//W3C//DTD SVG 1.1//EN" "http://www.w3.org/Graphics/SVG/1.1/DTD/svg11.dtd"><svg t="1514864250452" class="icon" style="" viewBox="0 0 1024 1024" version="1.1" xmlns="http://www.w3.org/2000/svg" p-id="2641" xmlns:xlink="http://www.w3.org/1999/xlink" width="200" height="200"><defs><style type="text/css"></style></defs><path d="M513 411.6m-388.8 0a388.8 388.8 0 1 0 777.6 0 388.8 388.8 0 1 0-777.6 0Z" fill="#F2CF3D" p-id="2642"></path><path d="M513 810.4c-53.8 0-106.1-10.5-155.2-31.3-47.5-20.1-90.1-48.8-126.8-85.5s-65.4-79.3-85.5-126.8c-20.8-49.2-31.3-101.4-31.3-155.2s10.5-106.1 31.3-155.2c20.1-47.5 48.8-90.1 85.5-126.8s79.3-65.4 126.8-85.5C406.9 23.3 459.2 12.8 513 12.8s106.1 10.5 155.2 31.3C715.7 64.2 758.4 93 795 129.6s65.4 79.3 85.5 126.8c20.8 49.2 31.3 101.4 31.3 155.2s-10.5 106.1-31.3 155.2c-20.1 47.5-48.8 90.1-85.5 126.8s-79.3 65.4-126.8 85.5c-49.1 20.7-101.4 31.3-155.2 31.3z m0-777.6c-51.1 0-100.7 10-147.4 29.8-45.1 19.1-85.6 46.4-120.4 81.2C210.4 178.5 183 219 164 264.1c-19.7 46.7-29.8 96.3-29.8 147.4s10 100.7 29.8 147.4c19.1 45.1 46.4 85.6 81.2 120.4 34.8 34.8 75.3 62.1 120.4 81.2 46.7 19.8 96.3 29.8 147.4 29.8 51.1 0 100.7-10 147.4-29.8 45.1-19.1 85.6-46.4 120.4-81.2C815.6 644.6 843 604.1 862 559c19.8-46.7 29.8-96.3 29.8-147.4s-10-100.7-29.8-147.4c-19.1-45.1-46.4-85.6-81.2-120.4C746 109 705.5 81.7 660.4 62.6 613.7 42.8 564.1 32.8 513 32.8z" fill="#231815" p-id="2643"></path><path d="M513 380.4m-357.6 0a357.6 357.6 0 1 0 715.2 0 357.6 357.6 0 1 0-715.2 0Z" fill="#FFE20D" p-id="2644"></path><path d="M513 810.4c-53.8 0-106.1-10.5-155.2-31.3-47.5-20.1-90.1-48.8-126.8-85.5s-65.4-79.3-85.5-126.8c-20.8-49.2-31.3-101.4-31.3-155.2s10.5-106.1 31.3-155.2c20.1-47.5 48.8-90.1 85.5-126.8s79.3-65.4 126.8-85.5C406.9 23.3 459.2 12.8 513 12.8s106.1 10.5 155.2 31.3C715.7 64.2 758.4 93 795 129.6s65.4 79.3 85.5 126.8c20.8 49.2 31.3 101.4 31.3 155.2s-10.5 106.1-31.3 155.2c-20.1 47.5-48.8 90.1-85.5 126.8s-79.3 65.4-126.8 85.5c-49.1 20.7-101.4 31.3-155.2 31.3z m0-777.6c-51.1 0-100.7 10-147.4 29.8-45.1 19.1-85.6 46.4-120.4 81.2C210.4 178.5 183 219 164 264.1c-19.7 46.7-29.8 96.3-29.8 147.4s10 100.7 29.8 147.4c19.1 45.1 46.4 85.6 81.2 120.4 34.8 34.8 75.3 62.1 120.4 81.2 46.7 19.8 96.3 29.8 147.4 29.8 51.1 0 100.7-10 147.4-29.8 45.1-19.1 85.6-46.4 120.4-81.2C815.6 644.6 843 604.1 862 559c19.8-46.7 29.8-96.3 29.8-147.4s-10-100.7-29.8-147.4c-19.1-45.1-46.4-85.6-81.2-120.4C746 109 705.5 81.7 660.4 62.6 613.7 42.8 564.1 32.8 513 32.8z" fill="#231815" p-id="2645"></path><path d="M389.5 116.3a123.5 40 0 1 0 247 0 123.5 40 0 1 0-247 0Z" fill="#FFF0B3" p-id="2646"></path><path d="M513 566.6c-62.9 0-121.7-7.5-172.4-20.5-18.3-4.7-35.5 10.9-31.6 28.7 20 90.9 103.7 159 204 159s184-68.2 204-159c3.9-17.8-13.4-33.4-31.6-28.7-50.7 13.1-109.5 20.5-172.4 20.5z" fill="#FFA6D7" p-id="2647"></path><path d="M513 743.9c-50.3 0-99.4-16.9-138.3-47.6-38.4-30.3-65.2-72.7-75.5-119.3-2.5-11.4 1.1-23.2 9.7-31.5 9.1-8.8 21.9-12.1 34.2-9 51.4 13.2 110.1 20.2 169.9 20.2s118.6-7 169.9-20.2c12.3-3.2 25.1 0.2 34.2 9 8.6 8.3 12.2 20.1 9.7 31.5-10.3 46.6-37.1 89-75.5 119.3-38.9 30.6-88 47.6-138.3 47.6zM334 555.3c-4.1 0-8.1 1.6-11.2 4.5-3.6 3.5-5.1 8.2-4.1 12.8 9.3 42.1 33.5 80.4 68.3 107.9 35.4 27.9 80.1 43.3 125.9 43.3 45.8 0 90.6-15.4 125.9-43.3 34.8-27.5 59.1-65.8 68.3-107.9 1-4.7-0.4-9.4-4.1-12.8-4.1-3.9-9.8-5.4-15.3-4-53 13.6-113.4 20.8-174.9 20.8s-121.9-7.2-174.9-20.8c-1.2-0.3-2.6-0.5-3.9-0.5z" fill="#231815" p-id="2648"></path><path d="M254 508a46 28.5 0 1 0 92 0 46 28.5 0 1 0-92 0Z" fill="#FFA178" p-id="2649"></path><path d="M680 508a46 28.5 0 1 0 92 0 46 28.5 0 1 0-92 0Z" fill="#FFA178" p-id="2650"></path><path d="M209.4 983.7a303.6 31.1 0 1 0 607.2 0 303.6 31.1 0 1 0-607.2 0Z" fill="#E5E5E5" p-id="2651"></path><path d="M279.4 276.5m-151.3 0a151.3 151.3 0 1 0 302.6 0 151.3 151.3 0 1 0-302.6 0Z" fill="#FFE20D" p-id="2652"></path><path d="M279.4 437.8c-89 0-161.3-72.4-161.3-161.3s72.4-161.3 161.3-161.3 161.3 72.4 161.3 161.3-72.3 161.3-161.3 161.3z m0-302.7c-77.9 0-141.3 63.4-141.3 141.3s63.4 141.3 141.3 141.3 141.3-63.4 141.3-141.3-63.3-141.3-141.3-141.3z" fill="#231815" p-id="2653"></path><path d="M128.1 260.9a151.3 135.7 0 1 0 302.6 0 151.3 135.7 0 1 0-302.6 0Z" fill="#FFFACF" p-id="2654"></path><path d="M279.4 437.8c-89 0-161.3-72.4-161.3-161.3s72.4-161.3 161.3-161.3 161.3 72.4 161.3 161.3-72.3 161.3-161.3 161.3z m0-302.7c-77.9 0-141.3 63.4-141.3 141.3s63.4 141.3 141.3 141.3 141.3-63.4 141.3-141.3-63.3-141.3-141.3-141.3z" fill="#231815" p-id="2655"></path><path d="M268.8 360.1v-18.8c-9.4-1.2-17-3.3-22.9-6.3-5.9-3-10.9-7.9-15.2-14.6-4.3-6.7-6.8-15-7.5-24.7l18.9-3.5c1.5 10.1 4 17.5 7.7 22.2 5.3 6.7 11.6 10.4 19 11.2v-59.7c-7.7-1.5-15.6-4.4-23.7-9-6-3.3-10.6-8-13.8-13.9-3.2-5.9-4.8-12.6-4.8-20.1 0-13.3 4.7-24.2 14.2-32.4 6.3-5.6 15.7-9 28.1-10.2v-9h11.1v9c10.9 1 19.6 4.2 26 9.6 8.2 6.8 13.1 16.2 14.8 28l-19.4 2.9c-1.1-7.4-3.4-13-6.9-16.9-3.5-3.9-8.3-6.5-14.4-7.8v54.1c9.5 2.4 15.7 4.2 18.8 5.5 5.8 2.6 10.6 5.7 14.3 9.4 3.7 3.7 6.5 8.1 8.5 13.1 2 5.1 3 10.6 3 16.5 0 13-4.1 23.8-12.4 32.5s-19 13.3-32.1 14v19h-11.3z m0-164.3c-7.3 1.1-13 4-17.3 8.8-4.2 4.7-6.3 10.3-6.3 16.8 0 6.4 1.8 11.7 5.4 16.1 3.6 4.3 9.6 7.8 18.2 10.3v-52z m11 129.7c7.3-0.9 13.3-4.1 18.1-9.5 4.8-5.4 7.1-12.1 7.1-20.1 0-6.8-1.7-12.3-5.1-16.4-3.4-4.1-10.1-7.8-20.2-11.1v57.1z" fill="" p-id="2656"></path><path d="M745.4 276.5m-151.3 0a151.3 151.3 0 1 0 302.6 0 151.3 151.3 0 1 0-302.6 0Z" fill="#FFE20D" p-id="2657"></path><path d="M745.4 437.8c-89 0-161.3-72.4-161.3-161.3s72.4-161.3 161.3-161.3 161.3 72.4 161.3 161.3-72.4 161.3-161.3 161.3z m0-302.7c-77.9 0-141.3 63.4-141.3 141.3s63.4 141.3 141.3 141.3 141.3-63.4 141.3-141.3-63.4-141.3-141.3-141.3z" fill="#231815" p-id="2658"></path><path d="M594.1 260.9a151.3 135.7 0 1 0 302.6 0 151.3 135.7 0 1 0-302.6 0Z" fill="#FFFACF" p-id="2659"></path><path d="M745.4 437.8c-89 0-161.3-72.4-161.3-161.3s72.4-161.3 161.3-161.3 161.3 72.4 161.3 161.3-72.4 161.3-161.3 161.3z m0-302.7c-77.9 0-141.3 63.4-141.3 141.3s63.4 141.3 141.3 141.3 141.3-63.4 141.3-141.3-63.4-141.3-141.3-141.3z" fill="#231815" p-id="2660"></path><path d="M734.7 360.1v-18.8c-9.4-1.2-17-3.3-22.9-6.3-5.9-3-10.9-7.9-15.2-14.6-4.3-6.7-6.8-15-7.5-24.7l18.9-3.5c1.5 10.1 4 17.5 7.7 22.2 5.3 6.7 11.6 10.4 19 11.2v-59.7c-7.7-1.5-15.6-4.4-23.7-9-6-3.3-10.6-8-13.8-13.9-3.2-5.9-4.8-12.6-4.8-20.1 0-13.3 4.7-24.2 14.2-32.4 6.3-5.6 15.7-9 28.2-10.2v-9h11.1v9c10.9 1 19.6 4.2 26 9.6 8.2 6.8 13.1 16.2 14.8 28l-19.4 2.9c-1.1-7.4-3.4-13-6.9-16.9-3.5-3.9-8.3-6.5-14.4-7.8v54.1c9.5 2.4 15.7 4.2 18.8 5.5 5.8 2.6 10.6 5.7 14.3 9.4 3.7 3.7 6.5 8.1 8.5 13.1 2 5.1 3 10.6 3 16.5 0 13-4.1 23.8-12.4 32.5s-19 13.3-32.1 14v19h-11.4z m0-164.3c-7.3 1.1-13.1 4-17.3 8.8-4.2 4.7-6.3 10.3-6.3 16.8 0 6.4 1.8 11.7 5.4 16.1 3.6 4.3 9.6 7.8 18.2 10.3v-52z m11.1 129.7c7.3-0.9 13.3-4.1 18.1-9.5 4.8-5.4 7.1-12.1 7.1-20.1 0-6.8-1.7-12.3-5.1-16.4-3.4-4.1-10.1-7.8-20.2-11.1v57.1z" fill="" p-id="2661"></path><path d="M522.4 866c-40 0-72.7-30.8-72.7-68.5V682.6c0-37.7 32.7-5.3 72.7-5.3s72.7-32.3 72.7 5.3v114.9c0 37.7-32.7 68.5-72.7 68.5z" fill="#FC5965" p-id="2662"></path><path d="M522.4 876c-45.6 0-82.7-35.2-82.7-78.5V682.6c0-7.6 1-18.4 9.3-24.4 9.7-7.1 22.1-3.1 36.6 1.5 11.1 3.5 23.7 7.6 36.9 7.6s25.8-4 36.9-7.6c14.5-4.6 26.9-8.6 36.6-1.5 8.3 6.1 9.3 16.8 9.3 24.4v114.9c-0.2 43.3-37.3 78.5-82.9 78.5z m-61.7-201.7c-0.3 0.6-1.1 2.8-1.1 8.2v114.9c0 32.3 28.1 58.5 62.7 58.5s62.7-26.2 62.7-58.5V682.6c0-5.4-0.8-7.6-1.1-8.2-3-0.6-12.4 2.4-18.7 4.4-11.9 3.8-26.7 8.5-42.9 8.5s-31.1-4.7-42.9-8.5c-6.3-2.1-15.7-5.1-18.7-4.5z" fill="#231815" p-id="2663"></path><path d="M522.4 714.5c-40 0-72.7 21.8-72.7 12.5v-57.9c0-9.3 32.7 4.9 72.7 4.9s72.7-14.2 72.7-4.9V727c0 9.4-32.7-12.5-72.7-12.5z" fill="#F9919D" p-id="2664"></path><path d="M522.4 876c-45.6 0-82.7-35.2-82.7-78.5V682.6c0-7.6 1-18.4 9.3-24.4 9.7-7.1 22.1-3.1 36.6 1.5 11.1 3.5 23.7 7.6 36.9 7.6s25.8-4 36.9-7.6c14.5-4.6 26.9-8.6 36.6-1.5 8.3 6.1 9.3 16.8 9.3 24.4v114.9c-0.2 43.3-37.3 78.5-82.9 78.5z m-61.7-201.7c-0.3 0.6-1.1 2.8-1.1 8.2v114.9c0 32.3 28.1 58.5 62.7 58.5s62.7-26.2 62.7-58.5V682.6c0-5.4-0.8-7.6-1.1-8.2-3-0.6-12.4 2.4-18.7 4.4-11.9 3.8-26.7 8.5-42.9 8.5s-31.1-4.7-42.9-8.5c-6.3-2.1-15.7-5.1-18.7-4.5z" fill="#231815" p-id="2665"></path><path d="M653 905.7c0 15.3-12.4 27.7-27.7 27.7s-27.7-12.4-27.7-27.7 27.7-59.3 27.7-59.3 27.7 44 27.7 59.3z" fill="#16CEF9" p-id="2666"></path><path d="M625.3 943.4c-20.8 0-37.7-16.9-37.7-37.7 0-5.2 1.6-15 15-40.1 7-13.1 13.9-24 14.2-24.5 1.8-2.9 5-4.7 8.5-4.7s6.6 1.8 8.5 4.7c0.3 0.5 7.2 11.4 14.2 24.5 13.5 25.1 15 34.9 15 40.1 0 20.8-16.9 37.7-37.7 37.7z m0-77.6c-9.6 16.7-17.7 33.9-17.7 39.9 0 9.8 7.9 17.7 17.7 17.7 9.8 0 17.7-7.9 17.7-17.7 0-4.9-6.6-20.5-17.7-39.9z" fill="#231815" p-id="2667"></path></svg>