<?xml version="1.0" standalone="no"?><!DOCTYPE svg PUBLIC "-//W3C//DTD SVG 1.1//EN" "http://www.w3.org/Graphics/SVG/1.1/DTD/svg11.dtd"><svg t="1514864306534" class="icon" style="" viewBox="0 0 1024 1024" version="1.1" xmlns="http://www.w3.org/2000/svg" p-id="4034" xmlns:xlink="http://www.w3.org/1999/xlink" width="200" height="200"><defs><style type="text/css"></style></defs><path d="M523.1 18.8C303.9 18.8 150 187 150 394.5c0 117.6 33.2 222.5 122.6 291.4V780c0 40.6 33.2 61.8 73.7 61.8S420 820.6 420 780l0.1-52.4c0-8.1 7.4-15.1 15.5-15.1s14.8 6.7 14.8 14.8v60.3c0 1-0.1 2-0.3 2.9 5.3 33.6 36 51.2 72.8 51.2s67.4-17.5 72.8-51c0-0.2-0.1-0.4-0.1-0.6V729c0-8.8 7.2-15.9 15.9-15.9s15.9 7.2 15.9 15.9v61.2c0 0.9-0.1 1.8-0.3 2.7 6.3 32.1 36.5 48.9 72.5 48.9 40.6 0 73.7-21.2 73.7-61.8v-94.1c89.4-68.9 122.6-173.8 122.6-291.4 0.3-207.5-153.6-375.7-372.8-375.7z" fill="#D2F1FC" p-id="4035"></path><path d="M699.8 851.3c-20.1 0-38.3-4.8-52.5-13.9-15.6-10-25.8-24.8-29.3-42.7-0.2-1.1-0.2-2.3 0-3.5 0.1-0.5 0.1-0.9 0.1-1.1V729c0-3.5-2.9-6.4-6.4-6.4s-6.4 2.9-6.4 6.4v60.7c0 0.3 0 0.5 0.1 0.8 0 0.6 0 1.3-0.1 1.9-3 18.6-13 34-28.8 44.4-14.3 9.5-32.8 14.5-53.4 14.5-44.2 0-76.5-23.2-82.2-59.2-0.2-1.1-0.2-2.3 0.1-3.4 0.1-0.4 0.1-0.7 0.1-1.1v-60.3c0-2.9-2.4-5.3-5.3-5.3-3 0-6 2.8-6 5.6l-0.1 52.4c0 42.6-33.5 71.3-83.2 71.3-49.8 0-83.2-28.7-83.2-71.3v-89.5c-81.4-64.7-122.6-164.3-122.6-296 0-104.3 38-201 107-272.3 34.5-35.6 75.2-63.4 121.1-82.7 47.8-20.1 99.8-30.3 154.5-30.3S630 19.4 677.8 39.5c45.9 19.3 86.7 47.1 121.1 82.7 69 71.2 107 167.9 107 272.3 0 131.8-41.2 231.3-122.6 296V780c-0.2 42.7-33.7 71.3-83.5 71.3zM637 792.6c4.6 19.5 23.3 39.7 62.8 39.7 18.5 0 34.9-4.9 46.2-13.7 11.9-9.3 18-22.3 18-38.6v-94.1c0-2.9 1.4-5.7 3.7-7.5 78.9-60.8 118.9-156.3 118.9-283.9 0-99.4-36.1-191.4-101.7-259-32.7-33.7-71.3-60.1-114.8-78.4-45.5-19.1-95-28.8-147.1-28.8S421.5 38 376 57.1c-43.5 18.3-82.2 44.7-114.8 78.4-65.6 67.7-101.7 159.7-101.7 259 0 127.5 40 223 118.9 283.9 2.3 1.8 3.7 4.6 3.7 7.5V780c0 16.3 6.1 29.3 18 38.6 11.4 8.8 27.8 13.7 46.2 13.7s34.9-4.9 46.2-13.7c11.9-9.3 18-22.3 18-38.6l0.1-52.4c0-13.3 11.5-24.5 25-24.5 13.4 0 24.3 10.9 24.3 24.3v60.3c0 1-0.1 1.9-0.2 2.9 3.9 20.4 22.4 41.7 63.2 41.7 40.9 0 59.4-21.5 63.2-41.9V729c0-14 11.4-25.4 25.4-25.4s25.4 11.4 25.4 25.4v61.2c0.3 0.9 0.2 1.6 0.1 2.4z" fill="#231815" p-id="4036"></path><path d="M377.7 134.7a145.4 47 0 1 0 290.8 0 145.4 47 0 1 0-290.8 0Z" fill="#EBFCFC" p-id="4037"></path><path d="M165.6 973.4a357.5 36.6 0 1 0 715 0 357.5 36.6 0 1 0-715 0Z" fill="#E5E5E5" p-id="4038"></path><path d="M364.7 446.7m-82.7 0a82.7 82.7 0 1 0 165.4 0 82.7 82.7 0 1 0-165.4 0Z" fill="#5E6263" p-id="4039"></path><path d="M364.7 538.8c-50.8 0-92.2-41.3-92.2-92.2s41.3-92.2 92.2-92.2 92.2 41.3 92.2 92.2-41.3 92.2-92.2 92.2z m0-165.3c-40.3 0-73.2 32.8-73.2 73.2 0 40.3 32.8 73.2 73.2 73.2s73.2-32.8 73.2-73.2c0-40.4-32.8-73.2-73.2-73.2z" fill="#231815" p-id="4040"></path><path d="M282 461.8a82.7 67.5 0 1 0 165.4 0 82.7 67.5 0 1 0-165.4 0Z" fill="#A0A4A5" p-id="4041"></path><path d="M364.7 538.8c-50.8 0-92.2-41.3-92.2-92.2s41.3-92.2 92.2-92.2 92.2 41.3 92.2 92.2-41.3 92.2-92.2 92.2z m0-165.3c-40.3 0-73.2 32.8-73.2 73.2 0 40.3 32.8 73.2 73.2 73.2s73.2-32.8 73.2-73.2c0-40.4-32.8-73.2-73.2-73.2z" fill="#231815" p-id="4042"></path><path d="M681.4 446.7m-82.7 0a82.7 82.7 0 1 0 165.4 0 82.7 82.7 0 1 0-165.4 0Z" fill="#5E6263" p-id="4043"></path><path d="M681.4 538.8c-50.8 0-92.2-41.3-92.2-92.2s41.3-92.2 92.2-92.2 92.2 41.3 92.2 92.2-41.3 92.2-92.2 92.2z m0-165.3c-40.3 0-73.2 32.8-73.2 73.2 0 40.3 32.8 73.2 73.2 73.2s73.2-32.8 73.2-73.2c0-40.4-32.8-73.2-73.2-73.2z" fill="#231815" p-id="4044"></path><path d="M598.7 461.8a82.7 67.5 0 1 0 165.4 0 82.7 67.5 0 1 0-165.4 0Z" fill="#A0A4A5" p-id="4045"></path><path d="M681.4 538.8c-50.8 0-92.2-41.3-92.2-92.2s41.3-92.2 92.2-92.2 92.2 41.3 92.2 92.2-41.3 92.2-92.2 92.2z m0-165.3c-40.3 0-73.2 32.8-73.2 73.2 0 40.3 32.8 73.2 73.2 73.2s73.2-32.8 73.2-73.2c0-40.4-32.8-73.2-73.2-73.2z" fill="#231815" p-id="4046"></path><path d="M476.7 593.7l26.3-45.6c8.9-15.4 31.2-15.4 40.1 0l26.3 45.6c8.9 15.4-2.2 34.7-20 34.7h-52.6c-17.8 0-29-19.2-20.1-34.7z" fill="#5E6263" p-id="4047"></path><path d="M549.4 637.9h-52.6c-11.8 0-22.4-6.1-28.3-16.3-5.9-10.2-5.9-22.4 0-32.6l26.3-45.6c5.9-10.2 16.5-16.3 28.3-16.3s22.4 6.1 28.3 16.3l26.3 45.6c5.9 10.2 5.9 22.4 0 32.6-5.9 10.2-16.5 16.3-28.3 16.3z m-26.3-91.8c-4.9 0-9.3 2.5-11.8 6.8L485 598.5c-2.5 4.3-2.5 9.4 0 13.6 2.5 4.3 6.9 6.8 11.8 6.8h52.6c4.9 0 9.3-2.5 11.8-6.8s2.5-9.4 0-13.6l-26.3-45.6c-2.5-4.3-6.9-6.8-11.8-6.8z" fill="#231815" p-id="4048"></path></svg>