<?xml version="1.0" standalone="no"?><!DOCTYPE svg PUBLIC "-//W3C//DTD SVG 1.1//EN" "http://www.w3.org/Graphics/SVG/1.1/DTD/svg11.dtd"><svg t="1514864313300" class="icon" style="" viewBox="0 0 1024 1024" version="1.1" xmlns="http://www.w3.org/2000/svg" p-id="4305" xmlns:xlink="http://www.w3.org/1999/xlink" width="200" height="200"><defs><style type="text/css"></style></defs><path d="M492.4 447.7m-428 0a428 428 0 1 0 856 0 428 428 0 1 0-856 0Z" fill="#F2CF3D" p-id="4306"></path><path d="M492.4 885.7c-59.1 0-116.5-11.6-170.5-34.4-52.2-22.1-99-53.6-139.2-93.9-40.2-40.2-71.8-87.1-93.9-139.2-22.8-54-34.4-111.4-34.4-170.5S66 331.3 88.9 277.3c22.1-52.2 53.6-99 93.9-139.2C223 97.9 269.9 66.3 322 44.2 376 21.4 433.4 9.8 492.5 9.8S609 21.4 663 44.2c52.2 22.1 99 53.6 139.2 93.9 40.2 40.2 71.8 87.1 93.9 139.2 22.8 54 34.4 111.4 34.4 170.5S918.8 564.2 896 618.2c-22.1 52.2-53.6 99-93.9 139.2-40.2 40.2-87.1 71.8-139.2 93.9-54 22.8-111.4 34.4-170.5 34.4z m0-855.9c-56.4 0-111.2 11-162.7 32.8-49.8 21.1-94.5 51.2-132.9 89.6-38.4 38.4-68.5 83.1-89.6 132.9-21.8 51.5-32.8 106.3-32.8 162.7s11 111.2 32.8 162.7c21.1 49.8 51.2 94.5 89.6 132.9 38.4 38.4 83.1 68.5 132.9 89.6 51.5 21.8 106.3 32.8 162.7 32.8 56.4 0 111.2-11 162.7-32.8 49.8-21.1 94.5-51.2 132.9-89.6 38.4-38.4 68.5-83.1 89.6-132.9 21.8-51.5 32.8-106.3 32.8-162.7s-11-111.2-32.8-162.7c-21.1-49.8-51.2-94.5-89.6-132.9-38.4-38.4-83.1-68.5-132.9-89.6-51.5-21.8-106.3-32.8-162.7-32.8z" fill="#231815" p-id="4307"></path><path d="M492.4 413.4m-393.6 0a393.6 393.6 0 1 0 787.2 0 393.6 393.6 0 1 0-787.2 0Z" fill="#FFE20D" p-id="4308"></path><path d="M492.4 885.7c-59.1 0-116.5-11.6-170.5-34.4-52.2-22.1-99-53.6-139.2-93.9-40.2-40.2-71.8-87.1-93.9-139.2-22.8-54-34.4-111.4-34.4-170.5S66 331.3 88.9 277.3c22.1-52.2 53.6-99 93.9-139.2C223 97.9 269.9 66.3 322 44.2 376 21.4 433.4 9.8 492.5 9.8S609 21.4 663 44.2c52.2 22.1 99 53.6 139.2 93.9 40.2 40.2 71.8 87.1 93.9 139.2 22.8 54 34.4 111.4 34.4 170.5S918.8 564.2 896 618.2c-22.1 52.2-53.6 99-93.9 139.2-40.2 40.2-87.1 71.8-139.2 93.9-54 22.8-111.4 34.4-170.5 34.4z m0-855.9c-56.4 0-111.2 11-162.7 32.8-49.8 21.1-94.5 51.2-132.9 89.6-38.4 38.4-68.5 83.1-89.6 132.9-21.8 51.5-32.8 106.3-32.8 162.7s11 111.2 32.8 162.7c21.1 49.8 51.2 94.5 89.6 132.9 38.4 38.4 83.1 68.5 132.9 89.6 51.5 21.8 106.3 32.8 162.7 32.8 56.4 0 111.2-11 162.7-32.8 49.8-21.1 94.5-51.2 132.9-89.6 38.4-38.4 68.5-83.1 89.6-132.9 21.8-51.5 32.8-106.3 32.8-162.7s-11-111.2-32.8-162.7c-21.1-49.8-51.2-94.5-89.6-132.9-38.4-38.4-83.1-68.5-132.9-89.6-51.5-21.8-106.3-32.8-162.7-32.8z" fill="#231815" p-id="4309"></path><path d="M356.4 122.7a136 44 0 1 0 272 0 136 44 0 1 0-272 0Z" fill="#FFF0B3" p-id="4310"></path><path d="M207.2 553.9a50.7 31.4 0 1 0 101.4 0 50.7 31.4 0 1 0-101.4 0Z" fill="#FFA178" p-id="4311"></path><path d="M676.2 553.9a50.7 31.4 0 1 0 101.4 0 50.7 31.4 0 1 0-101.4 0Z" fill="#FFA178" p-id="4312"></path><path d="M158.2 971a334.2 34.2 0 1 0 668.4 0 334.2 34.2 0 1 0-668.4 0Z" fill="#E5E5E5" p-id="4313"></path><path d="M461.4 658.4c-5.5 0-10-4.5-10-10s4.5-10 10-10c28.2 0 52-16.4 52-35.9s-23.8-35.9-52-35.9c-5.5 0-10-4.5-10-10s4.5-10 10-10c18.7 0 36.4 5.5 49.8 15.4 14.3 10.6 22.2 25 22.2 40.5s-7.9 29.9-22.2 40.5c-13.4 9.9-31.1 15.4-49.8 15.4z" fill="#231815" p-id="4314"></path><path d="M461.4 750.2c-5.5 0-10-4.5-10-10s4.5-10 10-10c28.2 0 52-16.4 52-35.9s-23.8-35.9-52-35.9c-5.5 0-10-4.5-10-10s4.5-10 10-10c18.7 0 36.4 5.5 49.8 15.4 14.3 10.6 22.2 25 22.2 40.5s-7.9 29.9-22.2 40.5c-13.4 9.9-31.1 15.4-49.8 15.4z" fill="#231815" p-id="4315"></path><path d="M726.9 442c-24.8 0-44.9-20.2-44.9-44.9 0-5.5 4.5-10 10-10s10 4.5 10 10c0 13.7 11.2 24.9 24.9 24.9s24.9-11.2 24.9-24.9c0-5.5 4.5-10 10-10s10 4.5 10 10c0 24.7-20.1 44.9-44.9 44.9zM257.9 442c-24.8 0-44.9-20.2-44.9-44.9 0-5.5 4.5-10 10-10s10 4.5 10 10c0 13.7 11.2 24.9 24.9 24.9s24.9-11.2 24.9-24.9c0-5.5 4.5-10 10-10s10 4.5 10 10c0 24.7-20.1 44.9-44.9 44.9z" fill="#231815" p-id="4316"></path><path d="M891.1 587.6c-27.3-10.3-56.3-7.8-80.4 4.5-10-25.2-30-46.2-57.3-56.6-51.5-19.5-109.1 6.5-128.6 58s65.7 239.8 91 249.3 213.8-75.1 233.3-126.6-6.5-109.1-58-128.6z" fill="#F97B67" p-id="4317"></path><path d="M720.9 853.6c-4.8 0-7.2-0.9-8.6-1.4-3.5-1.3-12.7-4.8-32.8-40.2-11.7-20.7-24.3-47.1-35.3-74.4-12.1-30-21.3-58.6-26.8-82.6-6.7-29.7-7.4-51-2-65.1 10.4-27.4 30.8-49.2 57.5-61.2 26.7-12.1 56.5-13 84-2.6 25.5 9.6 46.4 28.6 58.8 52.7 25.3-9.9 53.5-10.3 79-0.6 56.6 21.4 85.2 84.9 63.8 141.5-5.3 14.1-19.9 29.6-44.6 47.4-19.9 14.4-45.8 29.7-74.7 44.2-26.3 13.2-53.2 24.7-75.7 32.4-23 8-35.5 9.9-42.6 9.9z m-1.5-20.1c1.1 0.2 9.9 1.1 39.5-9.3 21.8-7.6 47.6-18.8 72.9-31.5 59.2-29.9 100.6-60.5 108-80 8.5-22.4 7.7-46.8-2.1-68.7-9.9-21.9-27.6-38.6-50-47-23.5-8.9-49.8-7.4-72.4 4l-9.8 5-4-10.2c-9.3-23.5-28.1-42-51.6-50.9-22.4-8.5-46.8-7.7-68.7 2.1-21.9 9.9-38.6 27.6-47 50.1-7.4 19.5 3.3 69.9 28 131.5 10.5 26.2 22.5 51.7 33.8 71.9 15.2 27.2 22.4 32.3 23.4 33z" fill="#231815" p-id="4318"></path><path d="M852.9 688.6c-27.3-10.3-56.3-7.8-80.4 4.5-10-25.2-30-46.2-57.3-56.6-30.8-11.6-63.6-7-89.3 9.6 15.1 75.2 70.4 189.3 90 196.7 19.6 7.4 136.5-41.5 197.7-87.9-8.4-29.4-29.9-54.6-60.7-66.3z" fill="#FC4427" p-id="4319"></path><path d="M720.9 853.6c-4.8 0-7.2-0.9-8.6-1.4-3.5-1.3-12.7-4.8-32.8-40.2-11.7-20.7-24.3-47.1-35.3-74.4-12.1-30-21.3-58.6-26.8-82.6-6.7-29.7-7.4-51-2-65.1 10.4-27.4 30.8-49.2 57.5-61.2 26.7-12.1 56.5-13 84-2.6 25.5 9.6 46.4 28.6 58.8 52.7 25.3-9.9 53.5-10.3 79-0.6 56.6 21.4 85.2 84.9 63.8 141.5-5.3 14.1-19.9 29.6-44.6 47.4-19.9 14.4-45.8 29.7-74.7 44.2-26.3 13.2-53.2 24.7-75.7 32.4-23 8-35.5 9.9-42.6 9.9z m-1.5-20.1c1.1 0.2 9.9 1.1 39.5-9.3 21.8-7.6 47.6-18.8 72.9-31.5 59.2-29.9 100.6-60.5 108-80 8.5-22.4 7.7-46.8-2.1-68.7-9.9-21.9-27.6-38.6-50-47-23.5-8.9-49.8-7.4-72.4 4l-9.8 5-4-10.2c-9.3-23.5-28.1-42-51.6-50.9-22.4-8.5-46.8-7.7-68.7 2.1-21.9 9.9-38.6 27.6-47 50.1-7.4 19.5 3.3 69.9 28 131.5 10.5 26.2 22.5 51.7 33.8 71.9 15.2 27.2 22.4 32.3 23.4 33z" fill="#231815" p-id="4320"></path></svg>