<?xml version="1.0" standalone="no"?><!DOCTYPE svg PUBLIC "-//W3C//DTD SVG 1.1//EN" "http://www.w3.org/Graphics/SVG/1.1/DTD/svg11.dtd"><svg t="1514864228669" class="icon" style="" viewBox="0 0 1024 1024" version="1.1" xmlns="http://www.w3.org/2000/svg" p-id="1809" xmlns:xlink="http://www.w3.org/1999/xlink" width="200" height="200"><defs><style type="text/css"></style></defs><path d="M511.3 457.9m-374.9 0a374.9 374.9 0 1 0 749.8 0 374.9 374.9 0 1 0-749.8 0Z" fill="#F2CF3D" p-id="1810"></path><path d="M511.3 842.8c-52 0-102.4-10.2-149.8-30.3-45.8-19.4-87-47.1-122.3-82.5-35.3-35.3-63.1-76.5-82.5-122.3-20.1-47.5-30.3-97.9-30.3-149.8 0-52 10.2-102.4 30.3-149.8 19.4-45.8 47.1-87 82.5-122.3 35.3-35.3 76.5-63.1 122.3-82.5C409 83.2 459.4 73 511.3 73s102.4 10.2 149.8 30.3c45.8 19.4 87 47.1 122.3 82.5 35.3 35.3 63.1 76.5 82.5 122.3 20.1 47.5 30.3 97.9 30.3 149.8 0 52-10.2 102.4-30.3 149.8-19.4 45.8-47.1 87-82.5 122.3-35.3 35.3-76.5 63.1-122.3 82.5-47.4 20.1-97.8 30.3-149.8 30.3z m0-749.8c-49.3 0-97 9.6-142 28.7-43.4 18.4-82.5 44.7-116 78.2s-59.8 72.5-78.2 116c-19 45-28.7 92.8-28.7 142s9.6 97 28.7 142c18.4 43.4 44.7 82.5 78.2 116s72.5 59.8 116 78.2c45 19 92.8 28.7 142 28.7s97-9.6 142-28.7c43.4-18.4 82.5-44.7 116-78.2s59.8-72.5 78.2-116c19-45 28.7-92.8 28.7-142s-9.6-97-28.7-142c-18.4-43.4-44.7-82.5-78.2-116s-72.5-59.8-116-78.2c-44.9-19.1-92.7-28.7-142-28.7z" fill="#231815" p-id="1811"></path><path d="M511.3 427.8m-344.8 0a344.8 344.8 0 1 0 689.6 0 344.8 344.8 0 1 0-689.6 0Z" fill="#FFE20D" p-id="1812"></path><path d="M511.3 842.8c-52 0-102.4-10.2-149.8-30.3-45.8-19.4-87-47.1-122.3-82.5-35.3-35.3-63.1-76.5-82.5-122.3-20.1-47.5-30.3-97.9-30.3-149.8 0-52 10.2-102.4 30.3-149.8 19.4-45.8 47.1-87 82.5-122.3 35.3-35.3 76.5-63.1 122.3-82.5C409 83.2 459.4 73 511.3 73s102.4 10.2 149.8 30.3c45.8 19.4 87 47.1 122.3 82.5 35.3 35.3 63.1 76.5 82.5 122.3 20.1 47.5 30.3 97.9 30.3 149.8 0 52-10.2 102.4-30.3 149.8-19.4 45.8-47.1 87-82.5 122.3-35.3 35.3-76.5 63.1-122.3 82.5-47.4 20.1-97.8 30.3-149.8 30.3z m0-749.8c-49.3 0-97 9.6-142 28.7-43.4 18.4-82.5 44.7-116 78.2s-59.8 72.5-78.2 116c-19 45-28.7 92.8-28.7 142s9.6 97 28.7 142c18.4 43.4 44.7 82.5 78.2 116s72.5 59.8 116 78.2c45 19 92.8 28.7 142 28.7s97-9.6 142-28.7c43.4-18.4 82.5-44.7 116-78.2s59.8-72.5 78.2-116c19-45 28.7-92.8 28.7-142s-9.6-97-28.7-142c-18.4-43.4-44.7-82.5-78.2-116s-72.5-59.8-116-78.2c-44.9-19.1-92.7-28.7-142-28.7z" fill="#231815" p-id="1813"></path><path d="M392.2 173.2a119.1 38.5 0 1 0 238.2 0 119.1 38.5 0 1 0-238.2 0Z" fill="#FFF0B3" p-id="1814"></path><path d="M261.5 550.9a44.4 27.5 0 1 0 88.8 0 44.4 27.5 0 1 0-88.8 0Z" fill="#FFA178" p-id="1815"></path><path d="M672.3 550.9a44.4 27.5 0 1 0 88.8 0 44.4 27.5 0 1 0-88.8 0Z" fill="#FFA178" p-id="1816"></path><path d="M336.5 495.4c-5.5 0-10-4.5-10-10 0-11.4-9.2-20.6-20.6-20.6s-20.6 9.2-20.6 20.6c0 5.5-4.5 10-10 10s-10-4.5-10-10c0-22.4 18.2-40.6 40.6-40.6 22.4 0 40.6 18.2 40.6 40.6 0 5.5-4.5 10-10 10zM747.3 495.4c-5.5 0-10-4.5-10-10 0-11.4-9.2-20.6-20.6-20.6s-20.6 9.2-20.6 20.6c0 5.5-4.5 10-10 10s-10-4.5-10-10c0-22.4 18.2-40.6 40.6-40.6s40.6 18.2 40.6 40.6c0 5.5-4.4 10-10 10z" fill="#231815" p-id="1817"></path><path d="M218.6 910.6a292.7 29.9 0 1 0 585.4 0 292.7 29.9 0 1 0-585.4 0Z" fill="#E5E5E5" p-id="1818"></path><path d="M511.3 628.2c-60.6 0-117.4-7.2-166.2-19.7-17.6-4.5-34.3 10.5-30.5 27.6 19.3 87.6 100 153.4 196.7 153.4S688.7 723.8 708 636.1c3.8-17.2-12.9-32.2-30.5-27.6-48.8 12.5-105.6 19.7-166.2 19.7z" fill="#FFA6D7" p-id="1819"></path><path d="M511.3 799.4c-48.6 0-96-16.3-133.6-46-37.1-29.3-63-70.2-72.9-115.2-2.5-11.2 1.1-22.6 9.4-30.7 8.9-8.6 21.3-11.8 33.3-8.7 49.5 12.7 106.1 19.4 163.7 19.4 57.6 0 114.3-6.7 163.7-19.4 12-3.1 24.4 0.2 33.3 8.7 8.4 8.1 11.9 19.6 9.4 30.7-9.9 45-35.8 85.9-72.9 115.2-37.3 29.7-84.8 46-133.4 46zM338.7 617.6c-3.9 0-7.7 1.5-10.5 4.3-3.4 3.3-4.8 7.7-3.8 12 8.9 40.5 32.3 77.4 65.8 103.8 34 26.9 77.1 41.7 121.2 41.7s87.2-14.8 121.2-41.7c33.5-26.4 56.8-63.3 65.8-103.8 1-4.4-0.4-8.8-3.8-12-3.8-3.7-9.2-5.1-14.4-3.8-51.1 13.1-109.4 20.1-168.7 20.1-59.3 0-117.6-6.9-168.7-20.1-1.5-0.3-2.8-0.5-4.1-0.5z" fill="#231815" p-id="1820"></path><path d="M640.7 744c-35-28.3-80.1-45.5-129.4-45.5S416.9 715.6 382 744c35 28.3 80.1 45.5 129.4 45.5s94.3-17.2 129.3-45.5z" fill="#FF66C1" p-id="1821"></path><path d="M511.3 799.4c-49.6 0-97.7-16.9-135.7-47.7-2.3-1.9-3.7-4.8-3.7-7.8s1.4-5.9 3.7-7.8c37.9-30.7 86.1-47.7 135.7-47.7 49.6 0 97.7 16.9 135.7 47.7 2.3 1.9 3.7 4.8 3.7 7.8s-1.4 5.9-3.7 7.8c-37.9 30.8-86.1 47.7-135.7 47.7zM398.5 744c32.6 22.9 72.2 35.5 112.8 35.5 40.6 0 80.2-12.5 112.8-35.5-32.6-22.9-72.2-35.5-112.8-35.5S431.1 721 398.5 744z" fill="#231815" p-id="1822"></path><path d="M172.2 352.7c25.1 12.4 47.5 88 47.5 88s-85.5-16.1-102.6-30c-17.1-13.9-18.6-38.2-3.4-54.2 15.3-16.1 38.5-13.7 58.5-3.8z" fill="#16CEF9" p-id="1823"></path><path d="M219.8 450.6c-0.6 0-1.2-0.1-1.9-0.2-0.2 0-21.9-4.1-45.4-9.9-49.2-12.1-58.6-19.7-61.6-22.2-10.4-8.5-16.6-20.4-17.5-33.4-0.8-13.1 3.8-25.6 13.1-35.4 16.4-17.2 42.6-19.4 70.1-5.8 12.8 6.3 25.2 23.9 37.9 53.6 8.9 20.7 14.5 39.6 14.8 40.4 1 3.3 0.2 7-2.2 9.5-1.8 2.3-4.5 3.4-7.3 3.4zM142 354.8c-7.4 0-14.9 2.1-20.9 8.5-5.4 5.7-8.1 12.9-7.7 20.4 0.5 7.4 4.1 14.2 10.1 19.2 2.7 2.2 13.3 8.3 53.7 18.3 10.1 2.5 19.9 4.7 27.7 6.3-9.8-27.7-25-59.8-37.1-65.8-5.4-2.7-15.5-6.9-25.8-6.9z" fill="#231815" p-id="1824"></path><path d="M41.2 444.5c16-6.5 63.8 17 63.8 17s-41.4 26.6-55.1 29c-13.7 2.4-26.8-6-29.1-18.7-2.4-12.8 7.6-22.2 20.4-27.3z" fill="#16CEF9" p-id="1825"></path><path d="M45.3 500.8c-16.6 0-31.4-11.3-34.4-27.3-3-16.1 6.9-30.4 26.6-38.4 5.8-2.4 16.8-4.3 45 5.9 14.3 5.2 26.4 11.1 26.9 11.4 3.2 1.6 5.4 4.8 5.6 8.4s-1.5 7-4.6 9c-7.2 4.6-43.9 27.9-58.8 30.4-2.1 0.5-4.2 0.6-6.3 0.6z m-0.3-47.1c-4.9 2-16 7.5-14.4 16.1 1.4 7.3 9.3 12.2 17.6 10.7 5.8-1 21.1-9.2 35.4-17.7-17.7-7-33.8-11-38.6-9.1z" fill="#231815" p-id="1826"></path><path d="M101.8 516.4c34.4-17.2 131.2 3.9 131.2 3.9s-64.8 63.1-88.8 77c-24 14-55.5 7.4-70.3-14.8-14.8-22.1 3-53.7 27.9-66.1z" fill="#16CEF9" p-id="1827"></path><path d="M117 614.6c-20.2 0-40-9.4-51.4-26.5-7.1-10.5-8.9-23.2-5.4-36.6 4.8-17.9 19.3-35.3 37.1-44.1 16-8 44.3-9.8 84.1-5.5 28.7 3.1 52.7 8.3 53.7 8.6 3.6 0.8 6.5 3.5 7.5 7s0 7.4-2.6 9.9c-2.7 2.6-66 64.1-90.8 78.5-10 5.9-21.1 8.7-32.2 8.7z m26.2-95c-15.1 0-28.5 1.5-36.9 5.7-12.7 6.3-23.4 18.9-26.7 31.4-2.1 7.8-1.2 14.6 2.6 20.3 11.9 17.8 37.4 23 56.9 11.7 16.1-9.4 52.8-43.2 72.9-62.2-19.5-3.4-46.2-6.9-68.8-6.9z" fill="#231815" p-id="1828"></path><path d="M846.3 354.5c-24.6 13.3-44.3 89.6-44.3 89.6s84.9-19.2 101.4-33.7c16.6-14.6 17.2-38.9 1.4-54.3-15.7-15.5-38.7-12.3-58.5-1.6z" fill="#16CEF9" p-id="1829"></path><path d="M802 454.1c-2.7 0-5.3-1.1-7.2-3-2.4-2.5-3.4-6.1-2.5-9.5 0.2-0.8 5.2-19.9 13.3-40.9 11.7-30.2 23.4-48.2 36-55 27-14.6 53.3-13.4 70.3 3.3 9.6 9.4 14.8 21.8 14.4 34.9-0.4 13.1-6.1 25.1-16.2 34-17.6 15.4-91.2 32.7-105.8 36-0.8 0.1-1.5 0.2-2.3 0.2z m49.1-90.8c-11.9 6.4-25.9 39.1-34.7 67.1 7.7-1.9 17.5-4.5 27.5-7.3 40-11.4 50.4-17.9 53-20.2 5.9-5.2 9.2-12.1 9.4-19.6 0.2-7.4-2.8-14.6-8.4-20.1-15-14.7-37.7-4.8-46.8 0.1z" fill="#231815" p-id="1830"></path><path d="M980.6 441.4c-16.2-5.9-63.1 19.3-63.1 19.3s42.3 25.1 56.1 27c13.8 1.9 26.5-7 28.5-19.8s-8.5-21.7-21.5-26.5z" fill="#16CEF9" p-id="1831"></path><path d="M977.2 498c-1.6 0-3.3-0.1-5-0.3-15-2-52.5-23.9-59.9-28.3-3.1-1.8-5-5.2-4.9-8.8 0.1-3.6 2.1-6.9 5.3-8.6 0.5-0.3 12.4-6.6 26.5-12.3 27.9-11.3 38.9-9.7 44.8-7.6 19.9 7.3 30.4 21.2 27.9 37.4-2.5 16.5-17.5 28.4-34.7 28.5z m-38.3-36.6c14.6 8 30.2 15.6 36 16.4 8.4 1.1 16.1-4 17.2-11.4 1.3-8.7-10-13.8-15-15.6-4.8-1.7-20.8 2.9-38.2 10.6z" fill="#231815" p-id="1832"></path><path d="M922.6 515.5c-35-15.9-131 8.7-131 8.7s67.1 60.7 91.6 73.8c24.5 13.1 55.7 5.4 69.7-17.3 14-22.7-4.9-53.7-30.3-65.2z" fill="#16CEF9" p-id="1833"></path><path d="M908.6 614.2c-10.3 0-20.6-2.4-30.1-7.5-25.3-13.5-90.8-72.7-93.6-75.2-2.7-2.5-3.9-6.2-3-9.8 0.9-3.6 3.7-6.4 7.2-7.3 1-0.3 24.8-6.3 53.4-10.5 39.6-5.8 67.9-5 84.2 2.4 18.1 8.2 33.3 25 38.7 42.8 4 13.2 2.6 25.9-4 36.7-11.2 18.2-31.7 28.4-52.8 28.4z m-95.8-84.7c20.9 18.3 58.7 50.8 75.1 59.6 19.9 10.6 45.2 4.5 56.5-13.7 3.6-5.8 4.3-12.7 1.9-20.4-3.7-12.3-14.9-24.5-27.8-30.4-21.2-9.6-73.2-1.8-105.7 4.9z" fill="#231815" p-id="1834"></path></svg>