<?xml version="1.0" standalone="no"?><!DOCTYPE svg PUBLIC "-//W3C//DTD SVG 1.1//EN" "http://www.w3.org/Graphics/SVG/1.1/DTD/svg11.dtd"><svg t="1514864337279" class="icon" style="" viewBox="0 0 1024 1024" version="1.1" xmlns="http://www.w3.org/2000/svg" p-id="5258" xmlns:xlink="http://www.w3.org/1999/xlink" width="200" height="200"><defs><style type="text/css"></style></defs><path d="M511.3 447.1m-430.1 0a430.1 430.1 0 1 0 860.2 0 430.1 430.1 0 1 0-860.2 0Z" fill="#F2CF3D" p-id="5259"></path><path d="M511.3 887.3c-59.4 0-117.1-11.6-171.3-34.6-52.4-22.2-99.5-53.9-139.9-94.3-40.4-40.4-72.2-87.5-94.3-139.9-23-54.3-34.6-111.9-34.6-171.3s11.6-117.1 34.6-171.3c22.2-52.4 53.9-99.5 94.3-139.9 40.4-40.4 87.5-72.2 139.9-94.3C394.3 18.6 451.9 7 511.3 7c59.4 0 117.1 11.6 171.3 34.6 52.4 22.2 99.5 53.9 139.9 94.3 40.4 40.4 72.2 87.5 94.3 139.9 23 54.3 34.6 111.9 34.6 171.3s-11.6 117.1-34.6 171.3c-22.2 52.4-53.9 99.5-94.3 139.9s-87.5 72.2-139.9 94.3c-54.2 23-111.9 34.7-171.3 34.7z m0-860.3c-56.7 0-111.7 11.1-163.5 33-50 21.2-95 51.5-133.5 90s-68.9 83.5-90 133.5c-21.9 51.8-33 106.8-33 163.5s11.1 111.7 33 163.5c21.2 50 51.5 95 90 133.5s83.5 68.9 133.5 90c51.8 21.9 106.8 33 163.5 33s111.7-11.1 163.5-33c50-21.2 95-51.5 133.5-90s68.9-83.5 90-133.5c21.9-51.8 33-106.8 33-163.5s-11.1-111.7-33-163.5c-21.2-50-51.5-95-90-133.5s-83.5-68.9-133.5-90c-51.7-21.9-106.7-33-163.5-33z" fill="#231815" p-id="5260"></path><path d="M511.3 412.6m-395.6 0a395.6 395.6 0 1 0 791.2 0 395.6 395.6 0 1 0-791.2 0Z" fill="#FFE20D" p-id="5261"></path><path d="M511.3 887.3c-59.4 0-117.1-11.6-171.3-34.6-52.4-22.2-99.5-53.9-139.9-94.3-40.4-40.4-72.2-87.5-94.3-139.9-23-54.3-34.6-111.9-34.6-171.3s11.6-117.1 34.6-171.3c22.2-52.4 53.9-99.5 94.3-139.9 40.4-40.4 87.5-72.2 139.9-94.3C394.3 18.6 451.9 7 511.3 7c59.4 0 117.1 11.6 171.3 34.6 52.4 22.2 99.5 53.9 139.9 94.3 40.4 40.4 72.2 87.5 94.3 139.9 23 54.3 34.6 111.9 34.6 171.3s-11.6 117.1-34.6 171.3c-22.2 52.4-53.9 99.5-94.3 139.9s-87.5 72.2-139.9 94.3c-54.2 23-111.9 34.7-171.3 34.7z m0-860.3c-56.7 0-111.7 11.1-163.5 33-50 21.2-95 51.5-133.5 90s-68.9 83.5-90 133.5c-21.9 51.8-33 106.8-33 163.5s11.1 111.7 33 163.5c21.2 50 51.5 95 90 133.5s83.5 68.9 133.5 90c51.8 21.9 106.8 33 163.5 33s111.7-11.1 163.5-33c50-21.2 95-51.5 133.5-90s68.9-83.5 90-133.5c21.9-51.8 33-106.8 33-163.5s-11.1-111.7-33-163.5c-21.2-50-51.5-95-90-133.5s-83.5-68.9-133.5-90c-51.7-21.9-106.7-33-163.5-33z" fill="#231815" p-id="5262"></path><path d="M374.7 120.5a136.6 44.2 0 1 0 273.2 0 136.6 44.2 0 1 0-273.2 0Z" fill="#FFF0B3" p-id="5263"></path><path d="M224.7 553.9a50.9 31.5 0 1 0 101.8 0 50.9 31.5 0 1 0-101.8 0Z" fill="#FFA178" p-id="5264"></path><path d="M696.1 553.9a50.9 31.5 0 1 0 101.8 0 50.9 31.5 0 1 0-101.8 0Z" fill="#FFA178" p-id="5265"></path><path d="M175.5 973.1a335.8 34.4 0 1 0 671.6 0 335.8 34.4 0 1 0-671.6 0Z" fill="#E5E5E5" p-id="5266"></path><path d="M310.8 465.9c-5.5 0-10-4.5-10-10 0-13.8-11.3-25.1-25.1-25.1s-25.1 11.3-25.1 25.1c0 5.5-4.5 10-10 10s-10-4.5-10-10c0-24.9 20.2-45.1 45.1-45.1s45.1 20.2 45.1 45.1c0 5.5-4.5 10-10 10zM782.1 465.9c-5.5 0-10-4.5-10-10 0-13.8-11.3-25.1-25.1-25.1s-25.1 11.3-25.1 25.1c0 5.5-4.5 10-10 10s-10-4.5-10-10c0-24.9 20.2-45.1 45.1-45.1s45.1 20.2 45.1 45.1c0 5.5-4.4 10-10 10z" fill="#231815" p-id="5267"></path><path d="M511.3 711.5c-25.6 0-51-5.2-73.6-15.1-22-9.6-41.4-23.7-56.1-40.7-3.6-4.2-3.2-10.5 1-14.1 4.2-3.6 10.5-3.2 14.1 1 26.5 30.6 69.3 48.9 114.6 48.9s88.1-18.3 114.6-48.9c3.6-4.2 9.9-4.6 14.1-1 4.2 3.6 4.6 9.9 1 14.1-14.7 17-34.1 31.1-56.1 40.7-22.5 9.8-48 15.1-73.6 15.1z" fill="#231815" p-id="5268"></path><path d="M607.1 691.3c-1.5-4.4-3.9-13.7-6.9-17-16.6 7.1-40.1 23.3-64 25.4-1.5 6-1.4 12.5 0.8 18.7l17.3 50.3c6.2 17.9 26.5 27.7 45.1 21.8 18.7-5.9 30.7-36.2 24.5-54.1l-16.8-45.1z" fill="#F9919D" p-id="5269"></path><path d="M588.3 802.3c-19.2 0-37.1-11.8-43.4-30.3l-17.3-50.3c-2.7-7.9-3.1-16.3-1-24.5l1.7-6.9 7.1-0.6c15.3-1.4 31.2-9.6 45.2-16.9 5.6-2.9 10.9-5.7 15.8-7.8l6.6-2.8 4.8 5.3c3.5 3.9 5.6 9.9 7.9 17.4 0.3 1.1 0.7 2.1 0.9 2.9l16.8 45.3c4.1 11.9 2.3 28.1-4.8 42.3-6.3 12.6-15.6 21.3-26.1 24.6-4.8 1.6-9.5 2.3-14.2 2.3z m-43.1-93.8c0.1 2.3 0.5 4.5 1.2 6.7l17.3 50.3c4.4 12.9 19.1 19.8 32.6 15.5 5.2-1.6 10.5-7.1 14.3-14.6 4.6-9.2 6.1-19.9 3.8-26.7l-16.8-45.3c-0.3-1-0.7-2.2-1.1-3.5-0.3-0.8-0.6-2-1.1-3.3-1.9 0.9-3.8 1.9-5.7 3-12.8 6.7-28.2 14.7-44.5 17.9z" fill="#231815" p-id="5270"></path><path d="M586.8 699.1c-1-3-2.7-5.6-4.7-7.9-13.6 3.9-29.2 6.8-46.2 8.2-1.6 4.9-1.8 10.2 0 15.5L557 775c4.6 13.1 19.8 20.3 33.8 16 14-4.3 21.6-18.7 17-31.8l-21-60.1z" fill="#FC5965" p-id="5271"></path><path d="M588.3 800.1c-19.1 0-37.1-11.6-43.4-29.7l-17.2-48.8c-0.8-1.6-1.5-3-2-4.2-3.3-6.8-5.6-11.2-3.4-19.6l1.8-6.9 7.1-0.6c18-1.6 39.9-11.3 55.9-18.4 3.6-1.6 7-3.1 10-4.4l6.5-2.7 4.8 5.2c3.6 3.9 5.7 9.9 8.1 17.3 0.3 1 0.6 1.9 0.9 2.7l14.3 38.5c4.5 12.8 2.4 31.6-5.2 46.7-5.9 11.7-14.4 19.8-24 22.8-4.8 1.4-9.5 2.1-14.2 2.1z m-44.7-91.4c0.7 1.4 1.5 3 2.4 4.9l0.2 0.5 17.5 49.8c4.3 12.4 19.3 19.3 32.7 15.1 4.3-1.3 8.7-5.9 12-12.6 5.1-10.1 6.9-23.4 4.3-31.1l-14.3-38.5c-0.3-0.9-0.7-2-1.1-3.2-0.3-0.9-0.7-2.3-1.2-3.7-0.3 0.1-0.7 0.3-1 0.4-14.4 6.3-33.3 14.7-51.5 18.4z" fill="#231815" p-id="5272"></path></svg>