<?xml version="1.0" standalone="no"?><!DOCTYPE svg PUBLIC "-//W3C//DTD SVG 1.1//EN" "http://www.w3.org/Graphics/SVG/1.1/DTD/svg11.dtd"><svg t="1514864316472" class="icon" style="" viewBox="0 0 1024 1024" version="1.1" xmlns="http://www.w3.org/2000/svg" p-id="4442" xmlns:xlink="http://www.w3.org/1999/xlink" width="200" height="200"><defs><style type="text/css"></style></defs><path d="M513 449.2m-423.4 0a423.4 423.4 0 1 0 846.8 0 423.4 423.4 0 1 0-846.8 0Z" fill="#F2CF3D" p-id="4443"></path><path d="M513 882.5c-58.5 0-115.3-11.5-168.7-34.1-51.6-21.8-98-53.1-137.8-92.9-39.8-39.8-71-86.1-92.9-137.8C91 564.3 79.5 507.5 79.5 449S91 333.7 113.6 280.3c21.8-51.6 53.1-98 92.9-137.8 39.8-39.8 86.1-71 137.8-92.9C397.7 27.2 454.5 15.8 513 15.8c58.5 0 115.3 11.5 168.7 34.1 51.6 21.8 98 53.1 137.8 92.9 39.8 39.8 71 86.1 92.9 137.8 22.6 53.4 34.1 110.2 34.1 168.7S935 564.6 912.4 618c-21.8 51.6-53.1 98-92.9 137.8-39.8 39.8-86.1 71-137.8 92.9-53.4 22.4-110.2 33.8-168.7 33.8z m0-846.7c-55.8 0-109.9 10.9-160.9 32.5-49.2 20.8-93.4 50.6-131.4 88.6-38 38-67.8 82.2-88.6 131.4-21.6 51-32.5 105.1-32.5 160.9s10.9 109.9 32.5 160.9c20.8 49.2 50.6 93.4 88.6 131.4 38 38 82.2 67.8 131.4 88.6 51 21.6 105.1 32.5 160.9 32.5s109.9-10.9 160.9-32.5c49.2-20.8 93.4-50.6 131.4-88.6s67.8-82.2 88.6-131.4c21.6-51 32.5-105.1 32.5-160.9s-10.9-109.9-32.5-160.9c-20.8-49.2-50.6-93.4-88.6-131.4-38-38-82.2-67.8-131.4-88.6-51-21.6-105.1-32.5-160.9-32.5z" fill="#231815" p-id="4444"></path><path d="M513 415.2m-389.4 0a389.4 389.4 0 1 0 778.8 0 389.4 389.4 0 1 0-778.8 0Z" fill="#FFE20D" p-id="4445"></path><path d="M513 882.5c-58.5 0-115.3-11.5-168.7-34.1-51.6-21.8-98-53.1-137.8-92.9-39.8-39.8-71-86.1-92.9-137.8C91 564.3 79.5 507.5 79.5 449S91 333.7 113.6 280.3c21.8-51.6 53.1-98 92.9-137.8 39.8-39.8 86.1-71 137.8-92.9C397.7 27.2 454.5 15.8 513 15.8c58.5 0 115.3 11.5 168.7 34.1 51.6 21.8 98 53.1 137.8 92.9 39.8 39.8 71 86.1 92.9 137.8 22.6 53.4 34.1 110.2 34.1 168.7S935 564.6 912.4 618c-21.8 51.6-53.1 98-92.9 137.8-39.8 39.8-86.1 71-137.8 92.9-53.4 22.4-110.2 33.8-168.7 33.8z m0-846.7c-55.8 0-109.9 10.9-160.9 32.5-49.2 20.8-93.4 50.6-131.4 88.6-38 38-67.8 82.2-88.6 131.4-21.6 51-32.5 105.1-32.5 160.9s10.9 109.9 32.5 160.9c20.8 49.2 50.6 93.4 88.6 131.4 38 38 82.2 67.8 131.4 88.6 51 21.6 105.1 32.5 160.9 32.5s109.9-10.9 160.9-32.5c49.2-20.8 93.4-50.6 131.4-88.6s67.8-82.2 88.6-131.4c21.6-51 32.5-105.1 32.5-160.9s-10.9-109.9-32.5-160.9c-20.8-49.2-50.6-93.4-88.6-131.4-38-38-82.2-67.8-131.4-88.6-51-21.6-105.1-32.5-160.9-32.5z" fill="#231815" p-id="4446"></path><path d="M378.5 127.6a134.5 43.5 0 1 0 269 0 134.5 43.5 0 1 0-269 0Z" fill="#FFF0B3" p-id="4447"></path><path d="M712 557.4m-35 0a35 35 0 1 0 70 0 35 35 0 1 0-70 0Z" fill="#231815" p-id="4448"></path><path d="M314 557.4m-35 0a35 35 0 1 0 70 0 35 35 0 1 0-70 0Z" fill="#231815" p-id="4449"></path><path d="M694.9 431.1a50.1 31 0 1 0 100.2 0 50.1 31 0 1 0-100.2 0Z" fill="#FFA178" p-id="4450"></path><path d="M230.9 431.1a50.1 31 0 1 0 100.2 0 50.1 31 0 1 0-100.2 0Z" fill="#FFA178" p-id="4451"></path><path d="M182.4 966.9a330.6 33.8 0 1 0 661.2 0 330.6 33.8 0 1 0-661.2 0Z" fill="#E5E5E5" p-id="4452"></path><path d="M392.8 333.5c-2.3 0-4.6-0.8-6.5-2.4-4.2-3.6-4.6-9.9-1-14.1 29.8-34.4 77.6-55 127.8-55s98 20.6 127.8 55c3.6 4.2 3.2 10.5-1 14.1-4.2 3.6-10.5 3.2-14.1-1-26-30.1-68.2-48.1-112.7-48.1s-86.6 18-112.7 48.1c-2.1 2.2-4.8 3.4-7.6 3.4z" fill="#231815" p-id="4453"></path></svg>