<?xml version="1.0" standalone="no"?><!DOCTYPE svg PUBLIC "-//W3C//DTD SVG 1.1//EN" "http://www.w3.org/Graphics/SVG/1.1/DTD/svg11.dtd"><svg t="1514864242008" class="icon" style="" viewBox="0 0 1024 1024" version="1.1" xmlns="http://www.w3.org/2000/svg" p-id="2365" xmlns:xlink="http://www.w3.org/1999/xlink" width="200" height="200"><defs><style type="text/css"></style></defs><path d="M443.3 451.7m-416.9 0a416.9 416.9 0 1 0 833.8 0 416.9 416.9 0 1 0-833.8 0Z" fill="#F2CF3D" p-id="2366"></path><path d="M443.3 878.6c-57.6 0-113.5-11.3-166.2-33.6-50.8-21.5-96.5-52.3-135.7-91.5s-70-84.9-91.5-135.7c-22.3-52.6-33.6-108.6-33.6-166.2S27.7 338.1 50 285.5c21.5-50.8 52.3-96.5 91.5-135.7s84.9-70 135.7-91.5C329.8 36 385.7 24.7 443.3 24.7c57.6 0 113.5 11.3 166.2 33.6 50.8 21.5 96.5 52.3 135.7 91.5 39.2 39.2 70 84.9 91.5 135.7 22.3 52.6 33.6 108.6 33.6 166.2S859 565.2 836.7 617.8c-21.5 50.8-52.3 96.5-91.5 135.7-39.2 39.2-84.9 70-135.7 91.5-52.6 22.3-108.5 33.6-166.2 33.6z m0-833.9c-54.9 0-108.2 10.8-158.4 32-48.5 20.5-92 49.8-129.4 87.2-37.4 37.4-66.7 80.9-87.2 129.4-21.2 50.2-32 103.5-32 158.4s10.8 108.2 32 158.4c20.5 48.5 49.8 92 87.2 129.3 37.4 37.4 80.9 66.7 129.4 87.2 50.2 21.2 103.5 32 158.4 32s108.2-10.8 158.4-32c48.5-20.5 92-49.8 129.3-87.2s66.7-80.9 87.2-129.3c21.2-50.2 32-103.5 32-158.4s-10.8-108.2-32-158.4c-20.5-48.5-49.8-92-87.2-129.4-37.4-37.4-80.9-66.7-129.3-87.2-50.1-21.2-103.4-32-158.4-32z" fill="#231815" p-id="2367"></path><path d="M443.3 418.2m-383.5 0a383.5 383.5 0 1 0 767 0 383.5 383.5 0 1 0-767 0Z" fill="#FFE20D" p-id="2368"></path><path d="M443.3 878.6c-57.6 0-113.5-11.3-166.2-33.6-50.8-21.5-96.5-52.3-135.7-91.5s-70-84.9-91.5-135.7c-22.3-52.6-33.6-108.6-33.6-166.2S27.7 338.1 50 285.5c21.5-50.8 52.3-96.5 91.5-135.7s84.9-70 135.7-91.5C329.8 36 385.7 24.7 443.3 24.7c57.6 0 113.5 11.3 166.2 33.6 50.8 21.5 96.5 52.3 135.7 91.5 39.2 39.2 70 84.9 91.5 135.7 22.3 52.6 33.6 108.6 33.6 166.2S859 565.2 836.7 617.8c-21.5 50.8-52.3 96.5-91.5 135.7-39.2 39.2-84.9 70-135.7 91.5-52.6 22.3-108.5 33.6-166.2 33.6z m0-833.9c-54.9 0-108.2 10.8-158.4 32-48.5 20.5-92 49.8-129.4 87.2-37.4 37.4-66.7 80.9-87.2 129.4-21.2 50.2-32 103.5-32 158.4s10.8 108.2 32 158.4c20.5 48.5 49.8 92 87.2 129.3 37.4 37.4 80.9 66.7 129.4 87.2 50.2 21.2 103.5 32 158.4 32s108.2-10.8 158.4-32c48.5-20.5 92-49.8 129.3-87.2s66.7-80.9 87.2-129.3c21.2-50.2 32-103.5 32-158.4s-10.8-108.2-32-158.4c-20.5-48.5-49.8-92-87.2-129.4-37.4-37.4-80.9-66.7-129.3-87.2-50.1-21.2-103.4-32-158.4-32z" fill="#231815" p-id="2369"></path><path d="M310.9 135a132.4 42.8 0 1 0 264.8 0 132.4 42.8 0 1 0-264.8 0Z" fill="#FFF0B3" p-id="2370"></path><path d="M247.4 430.8m-34.5 0a34.5 34.5 0 1 0 69 0 34.5 34.5 0 1 0-69 0Z" fill="#231815" p-id="2371"></path><path d="M443.3 699.4c-49.5 0-96.6-20.3-126-54.2-3.6-4.2-3.2-10.5 1-14.1 4.2-3.6 10.5-3.2 14.1 1 25.6 29.6 67.1 47.3 110.8 47.3 43.8 0 85.2-17.7 110.8-47.3 3.6-4.2 9.9-4.6 14.1-1 4.2 3.6 4.6 9.9 1 14.1-29.2 34-76.3 54.2-125.8 54.2z" fill="#231815" p-id="2372"></path><path d="M165.5 555.1a49.4 30.6 0 1 0 98.8 0 49.4 30.6 0 1 0-98.8 0Z" fill="#FFA178" p-id="2373"></path><path d="M622.4 555.1a49.4 30.6 0 1 0 98.8 0 49.4 30.6 0 1 0-98.8 0Z" fill="#FFA178" p-id="2374"></path><path d="M117.8 961.5a325.5 33.3 0 1 0 651 0 325.5 33.3 0 1 0-651 0Z" fill="#E5E5E5" p-id="2375"></path><path d="M613.8 460.8c-4.6 0-8.8-3.2-9.8-7.9-1.2-5.4 0.4-13.2 11.8-33.9 6-11 12.2-20.7 12.5-21.1 3-4.7 9.1-6 13.8-3.1 4.7 3 6 9.1 3.1 13.8-6.2 9.7-12.8 21.2-17 29.8l70.5-10.8c5.5-0.8 10.6 2.9 11.4 8.4 0.8 5.5-2.9 10.6-8.4 11.4l-86.4 13.2c-0.5 0.1-1 0.2-1.5 0.2z" fill="#231815" p-id="2376"></path><path d="M926 122.8l-93.7 69.4c-6.4 4.8-13.7-0.8-10.8-8.2l42.2-108.7c2.1-5.4 8.4-7.9 12.3-4.9l51.5 39.3c3.9 3 3.1 9.7-1.5 13.1z" fill="#FFFFFF" p-id="2377"></path><path d="M827.3 204c-3.6 0-7-1.1-10-3.3-6-4.6-8.1-12.7-5.2-20.3l42.2-108.7c2.3-5.8 7.1-10.3 12.9-11.9 5.2-1.5 10.6-0.5 14.7 2.7l51.5 39.3c4.1 3.2 6.5 8.1 6.5 13.5 0 6.1-3.1 11.9-8.1 15.6l-93.7 69.4c-3.2 2.5-7 3.7-10.8 3.7z m45.2-123.7l-38 97.9 84.3-62.5-46.3-35.4z" fill="#231815" p-id="2378"></path><path d="M994.9 236.9l-115.5 15.9c-7.9 1.1-11.6-7.2-5.5-12.4l89.2-75c4.4-3.7 11.1-2.9 13.1 1.6l26.3 59.2c2.1 4.4-1.8 9.9-7.6 10.7z" fill="#FFFFFF" p-id="2379"></path><path d="M878.1 262.8c-7 0-13.1-3.8-15.9-9.9-3.1-6.9-1-15.1 5.2-20.3l89.2-75c4.8-4 11.2-5.6 17.1-4.2 5.3 1.2 9.5 4.7 11.6 9.4l26.3 59.2c2.1 4.8 1.8 10.2-0.8 15-3 5.3-8.4 9-14.6 9.8l-115.5 15.9c-0.8 0.1-1.7 0.1-2.6 0.1z m90.4-88.9l-80.3 67.5 104-14.3-23.7-53.2z" fill="#231815" p-id="2380"></path><path d="M987.7 381.6l-105.8-49c-7.3-3.4-5.9-12.4 2.1-13.4l115.6-15c5.7-0.7 11 3.6 10.2 8.4l-9.8 64c-0.8 4.9-7 7.4-12.3 5z" fill="#FFFFFF" p-id="2381"></path><path d="M992 392.5c-2.9 0-5.8-0.6-8.4-1.9l-105.8-49c-7.3-3.4-11.5-10.7-10.4-18.2 1.1-7.5 7.3-13.2 15.3-14.2l115.6-15c6.2-0.8 12.4 1.3 16.7 5.7 3.8 3.9 5.5 9.1 4.7 14.2l-9.8 64c-0.8 5.1-4 9.6-8.8 12.1-2.8 1.6-6 2.3-9.1 2.3z m-96.7-64.7l95.3 44.1 8.8-57.6-104.1 13.5z" fill="#231815" p-id="2382"></path></svg>