<?xml version="1.0" standalone="no"?><!DOCTYPE svg PUBLIC "-//W3C//DTD SVG 1.1//EN" "http://www.w3.org/Graphics/SVG/1.1/DTD/svg11.dtd"><svg t="1514864330996" class="icon" style="" viewBox="0 0 1024 1024" version="1.1" xmlns="http://www.w3.org/2000/svg" p-id="4987" xmlns:xlink="http://www.w3.org/1999/xlink" width="200" height="200"><defs><style type="text/css"></style></defs><path d="M497.3 448.6m-426.9 0a426.9 426.9 0 1 0 853.8 0 426.9 426.9 0 1 0-853.8 0Z" fill="#F2CF3D" p-id="4988"></path><path d="M497.3 885.6c-59 0-116.2-11.6-170.1-34.3-52-22-98.8-53.5-138.9-93.6-40.1-40.1-71.6-86.9-93.6-138.9-22.8-53.9-34.3-111.1-34.3-170.1S72 332.5 94.7 278.6c22-52 53.5-98.8 93.6-138.9C228.4 99.5 275.2 68 327.2 46c53.9-22.8 111.1-34.3 170.1-34.3S613.5 23.3 667.4 46c52 22 98.8 53.5 138.9 93.6 40.1 40.1 71.6 86.8 93.6 138.9 22.8 53.9 34.3 111.1 34.3 170.1s-11.6 116.2-34.3 170.1c-22 52-53.5 98.8-93.6 138.9-40.1 40.1-86.8 71.6-138.9 93.6-53.9 22.8-111.2 34.4-170.1 34.4z m0-853.9c-56.3 0-110.9 11-162.3 32.8-49.6 21-94.2 51.1-132.5 89.4s-68.4 82.9-89.4 132.5c-21.7 51.4-32.8 106-32.8 162.3s11 110.9 32.8 162.3c21 49.6 51.1 94.2 89.4 132.5s82.9 68.4 132.5 89.4c51.4 21.7 106 32.8 162.3 32.8 56.3 0 110.9-11 162.3-32.8 49.6-21 94.2-51.1 132.5-89.4 38.3-38.3 68.4-82.9 89.4-132.5 21.7-51.4 32.8-106 32.8-162.3s-11-110.9-32.8-162.3c-21-49.6-51.1-94.2-89.4-132.5s-82.9-68.4-132.5-89.4c-51.4-21.8-106-32.8-162.3-32.8z" fill="#231815" p-id="4989"></path><path d="M497.3 414.4m-392.7 0a392.7 392.7 0 1 0 785.4 0 392.7 392.7 0 1 0-785.4 0Z" fill="#FFE20D" p-id="4990"></path><path d="M497.3 885.6c-59 0-116.2-11.6-170.1-34.3-52-22-98.8-53.5-138.9-93.6-40.1-40.1-71.6-86.9-93.6-138.9-22.8-53.9-34.3-111.1-34.3-170.1S72 332.5 94.7 278.6c22-52 53.5-98.8 93.6-138.9C228.4 99.5 275.2 68 327.2 46c53.9-22.8 111.1-34.3 170.1-34.3S613.5 23.3 667.4 46c52 22 98.8 53.5 138.9 93.6 40.1 40.1 71.6 86.8 93.6 138.9 22.8 53.9 34.3 111.1 34.3 170.1s-11.6 116.2-34.3 170.1c-22 52-53.5 98.8-93.6 138.9-40.1 40.1-86.8 71.6-138.9 93.6-53.9 22.8-111.2 34.4-170.1 34.4z m0-853.9c-56.3 0-110.9 11-162.3 32.8-49.6 21-94.2 51.1-132.5 89.4s-68.4 82.9-89.4 132.5c-21.7 51.4-32.8 106-32.8 162.3s11 110.9 32.8 162.3c21 49.6 51.1 94.2 89.4 132.5s82.9 68.4 132.5 89.4c51.4 21.7 106 32.8 162.3 32.8 56.3 0 110.9-11 162.3-32.8 49.6-21 94.2-51.1 132.5-89.4 38.3-38.3 68.4-82.9 89.4-132.5 21.7-51.4 32.8-106 32.8-162.3s-11-110.9-32.8-162.3c-21-49.6-51.1-94.2-89.4-132.5s-82.9-68.4-132.5-89.4c-51.4-21.8-106-32.8-162.3-32.8z" fill="#231815" p-id="4991"></path><path d="M361.7 124.4a135.6 43.9 0 1 0 271.2 0 135.6 43.9 0 1 0-271.2 0Z" fill="#FFF0B3" p-id="4992"></path><path d="M212.7 554.6a50.6 31.3 0 1 0 101.2 0 50.6 31.3 0 1 0-101.2 0Z" fill="#FFA178" p-id="4993"></path><path d="M680.6 554.6a50.6 31.3 0 1 0 101.2 0 50.6 31.3 0 1 0-101.2 0Z" fill="#FFA178" p-id="4994"></path><path d="M164 970.6a333.3 34.1 0 1 0 666.6 0 333.3 34.1 0 1 0-666.6 0Z" fill="#E5E5E5" p-id="4995"></path><path d="M466.4 658.8c-5.5 0-10-4.5-10-10s4.5-10 10-10c28.1 0 51.8-16.4 51.8-35.8s-23.7-35.8-51.8-35.8c-5.5 0-10-4.5-10-10s4.5-10 10-10c18.6 0 36.3 5.5 49.7 15.4 14.3 10.6 22.2 24.9 22.2 40.4s-7.9 29.8-22.2 40.4c-13.5 9.9-31.1 15.4-49.7 15.4z" fill="#231815" p-id="4996"></path><path d="M466.4 750.3c-5.5 0-10-4.5-10-10s4.5-10 10-10c28.1 0 51.8-16.4 51.8-35.8s-23.7-35.8-51.8-35.8c-5.5 0-10-4.5-10-10s4.5-10 10-10c18.6 0 36.3 5.5 49.7 15.4 14.3 10.6 22.2 24.9 22.2 40.4s-7.9 29.8-22.2 40.4c-13.5 10-31.1 15.4-49.7 15.4z" fill="#231815" p-id="4997"></path><path d="M766 442.9c-5.5 0-10-4.5-10-10 0-13.7-11.1-24.8-24.8-24.8-13.7 0-24.8 11.1-24.8 24.8 0 5.5-4.5 10-10 10s-10-4.5-10-10c0-24.7 20.1-44.8 44.8-44.8 24.7 0 44.8 20.1 44.8 44.8 0 5.5-4.4 10-10 10z" fill="#231815" p-id="4998"></path><path d="M895 588.1c-27.2-10.3-56.1-7.8-80.2 4.5-10-25.1-29.9-46.1-57.2-56.4-51.4-19.4-108.8 6.5-128.3 57.9-19.4 51.4 65.6 239.2 90.8 248.7 25.3 9.6 213.3-74.9 232.7-126.3 19.5-51.5-6.4-108.9-57.8-128.4z" fill="#F97B67" p-id="4999"></path><path d="M725.2 853.5c-4.8 0-7.2-0.9-8.6-1.4-3.5-1.3-12.7-4.8-32.7-40.1-11.7-20.6-24.2-47-35.2-74.2-12.1-29.9-21.3-58.4-26.7-82.4-6.7-29.7-7.3-50.9-2-64.9 21.4-56.5 84.7-85 141.2-63.7 25.4 9.6 46.3 28.5 58.6 52.6 25.2-9.9 53.4-10.2 78.8-0.6 27.4 10.3 49 30.7 61.1 57.4s12.9 56.4 2.6 83.8c-5.3 14-19.9 29.5-44.5 47.3-19.9 14.4-45.7 29.6-74.5 44.1-26.2 13.2-53.1 24.6-75.5 32.3-23 7.9-35.5 9.8-42.6 9.8z m-1.5-20.1c1.1 0.2 9.9 1.1 39.4-9.2 21.7-7.6 47.5-18.8 72.7-31.4 59.1-29.8 100.4-60.4 107.7-79.8 8.5-22.4 7.7-46.7-2.1-68.5s-27.6-38.5-49.9-46.9c-23.4-8.8-49.7-7.4-72.2 4l-9.8 5-4-10.2c-9.3-23.4-28-41.9-51.4-50.8-46.2-17.5-97.9 5.9-115.4 52-7.4 19.4 3.3 69.7 27.9 131.1 10.5 26.2 22.4 51.6 33.7 71.7 15.3 27.2 22.4 32.4 23.4 33z" fill="#231815" p-id="5000"></path><path d="M856.9 688.9c-27.2-10.3-56.1-7.8-80.2 4.5-10-25.1-29.9-46.1-57.2-56.4-30.7-11.6-63.5-7-89.1 9.6 15.1 75.1 70.3 188.9 89.8 196.2 19.5 7.4 136.2-41.4 197.2-87.7-8.3-29.4-29.8-54.6-60.5-66.2z" fill="#FC4427" p-id="5001"></path><path d="M725.2 853.5c-4.8 0-7.2-0.9-8.6-1.4-3.5-1.3-12.7-4.8-32.7-40.1-11.7-20.6-24.2-47-35.2-74.2-12.1-29.9-21.3-58.4-26.7-82.4-6.7-29.7-7.3-50.9-2-64.9 21.4-56.5 84.7-85 141.2-63.7 25.4 9.6 46.3 28.5 58.6 52.6 25.2-9.9 53.4-10.2 78.8-0.6 27.4 10.3 49 30.7 61.1 57.4s12.9 56.4 2.6 83.8c-5.3 14-19.9 29.5-44.5 47.3-19.9 14.4-45.7 29.6-74.5 44.1-26.2 13.2-53.1 24.6-75.5 32.3-23 7.9-35.5 9.8-42.6 9.8z m-1.5-20.1c1.1 0.2 9.9 1.1 39.4-9.2 21.7-7.6 47.5-18.8 72.7-31.4 59.1-29.8 100.4-60.4 107.7-79.8 8.5-22.4 7.7-46.7-2.1-68.5s-27.6-38.5-49.9-46.9c-23.4-8.8-49.7-7.4-72.2 4l-9.8 5-4-10.2c-9.3-23.4-28-41.9-51.4-50.8-46.2-17.5-97.9 5.9-115.4 52-7.4 19.4 3.3 69.7 27.9 131.1 10.5 26.2 22.4 51.6 33.7 71.7 15.3 27.2 22.4 32.4 23.4 33z" fill="#231815" p-id="5002"></path><path d="M283.5 428m-35.3 0a35.3 35.3 0 1 0 70.6 0 35.3 35.3 0 1 0-70.6 0Z" fill="#231815" p-id="5003"></path></svg>