<?xml version="1.0" standalone="no"?><!DOCTYPE svg PUBLIC "-//W3C//DTD SVG 1.1//EN" "http://www.w3.org/Graphics/SVG/1.1/DTD/svg11.dtd"><svg t="1514864246409" class="icon" style="" viewBox="0 0 1024 1024" version="1.1" xmlns="http://www.w3.org/2000/svg" p-id="2504" xmlns:xlink="http://www.w3.org/1999/xlink" width="200" height="200"><defs><style type="text/css"></style></defs><path d="M509.4 571.5m-325.8 0a325.8 325.8 0 1 0 651.6 0 325.8 325.8 0 1 0-651.6 0Z" fill="#F2CF3D" p-id="2505"></path><path d="M509.4 907.4c-89.7 0-174-34.9-237.5-98.4-63.4-63.4-98.4-147.8-98.4-237.5 0-89.7 34.9-174 98.4-237.5 63.4-63.4 147.8-98.4 237.5-98.4 89.7 0 174 34.9 237.5 98.4 63.4 63.4 98.4 147.8 98.4 237.5 0 89.7-34.9 174-98.4 237.5-63.5 63.4-147.8 98.4-237.5 98.4z m0-651.7c-84.4 0-163.7 32.9-223.3 92.5s-92.5 139-92.5 223.3c0 84.4 32.9 163.7 92.5 223.3 59.7 59.7 139 92.5 223.3 92.5s163.7-32.9 223.3-92.5c59.7-59.7 92.5-139 92.5-223.3 0-84.4-32.9-163.7-92.5-223.3s-139-92.5-223.3-92.5z" fill="#231815" p-id="2506"></path><path d="M509.4 545.4m-299.7 0a299.7 299.7 0 1 0 599.4 0 299.7 299.7 0 1 0-599.4 0Z" fill="#FFE20D" p-id="2507"></path><path d="M509.4 907.4c-89.7 0-174-34.9-237.5-98.4-63.4-63.4-98.4-147.8-98.4-237.5 0-89.7 34.9-174 98.4-237.5 63.4-63.4 147.8-98.4 237.5-98.4 89.7 0 174 34.9 237.5 98.4 63.4 63.4 98.4 147.8 98.4 237.5 0 89.7-34.9 174-98.4 237.5-63.5 63.4-147.8 98.4-237.5 98.4z m0-651.7c-84.4 0-163.7 32.9-223.3 92.5s-92.5 139-92.5 223.3c0 84.4 32.9 163.7 92.5 223.3 59.7 59.7 139 92.5 223.3 92.5s163.7-32.9 223.3-92.5c59.7-59.7 92.5-139 92.5-223.3 0-84.4-32.9-163.7-92.5-223.3s-139-92.5-223.3-92.5z" fill="#231815" p-id="2508"></path><path d="M405.9 324.1a103.5 33.5 0 1 0 207 0 103.5 33.5 0 1 0-207 0Z" fill="#FFF0B3" p-id="2509"></path><path d="M509.4 701.5c-52.7 0-102-6.3-144.5-17.2-15.3-3.9-29.8 9.1-26.5 24 16.8 76.2 86.9 133.3 171 133.3s154.2-57.1 171-133.3c3.3-14.9-11.2-28-26.5-24-42.5 10.9-91.8 17.2-144.5 17.2z" fill="#FFA6D7" p-id="2510"></path><path d="M509.4 851.6c-42.5 0-84.1-14.3-116.9-40.2-32.5-25.6-55.2-61.5-63.8-100.9-2.2-10.1 1-20.6 8.6-27.9 8-7.8 19.3-10.7 30.2-7.9 42.9 11 92 16.8 142 16.8s99.1-5.8 142-16.8c10.9-2.8 22.1 0.2 30.2 7.9 7.6 7.3 10.8 17.8 8.6 27.9-8.7 39.4-31.3 75.2-63.8 100.9-33.1 25.9-74.6 40.2-117.1 40.2z m-150.1-158c-3.1 0-6 1.2-8.2 3.3-1.2 1.2-4 4.5-2.9 9.2 7.7 34.9 27.8 66.7 56.7 89.5 29.3 23.2 66.5 35.9 104.5 35.9 38.1 0 75.2-12.8 104.5-35.9 28.9-22.8 49-54.6 56.7-89.5 1-4.8-1.7-8.1-2.9-9.2-3-2.9-7.2-4-11.3-2.9-44.5 11.4-95.3 17.5-147 17.5s-102.5-6-147-17.5c-1-0.3-2.1-0.4-3.1-0.4z" fill="#231815" p-id="2511"></path><path d="M621.8 802.1c-30.4-24.6-69.6-39.5-112.4-39.5-42.8 0-82.1 14.9-112.4 39.5 30.4 24.6 69.6 39.5 112.4 39.5 42.8 0 82-14.8 112.4-39.5z" fill="#FF66C1" p-id="2512"></path><path d="M509.4 851.6c-43.4 0-85.5-14.8-118.7-41.7-2.3-1.9-3.7-4.8-3.7-7.8s1.4-5.9 3.7-7.8c33.2-26.9 75.4-41.7 118.7-41.7 43.4 0 85.5 14.8 118.7 41.7 2.3 1.9 3.7 4.8 3.7 7.8s-1.4 5.9-3.7 7.8c-33.2 26.9-75.4 41.7-118.7 41.7z m-95.8-49.5c27.8 19.1 61.4 29.5 95.7 29.5 34.4 0 67.9-10.4 95.7-29.5-27.8-19.1-61.4-29.5-95.7-29.5-34.3 0-67.9 10.4-95.7 29.5z" fill="#231815" p-id="2513"></path><path d="M292.2 652.4a38.6 23.9 0 1 0 77.2 0 38.6 23.9 0 1 0-77.2 0Z" fill="#FFA178" p-id="2514"></path><path d="M649.3 652.4a38.6 23.9 0 1 0 77.2 0 38.6 23.9 0 1 0-77.2 0Z" fill="#FFA178" p-id="2515"></path><path d="M255 969.9a254.4 26 0 1 0 508.8 0 254.4 26 0 1 0-508.8 0Z" fill="#E5E5E5" p-id="2516"></path><path d="M357.4 588.2c-5.5 0-10-4.5-10-10 0-9.2-7.4-16.6-16.6-16.6s-16.6 7.4-16.6 16.6c0 5.5-4.5 10-10 10s-10-4.5-10-10c0-20.2 16.4-36.6 36.6-36.6s36.6 16.4 36.6 36.6c0 5.5-4.5 10-10 10zM714.5 588.2c-5.5 0-10-4.5-10-10 0-9.2-7.4-16.6-16.6-16.6s-16.6 7.4-16.6 16.6c0 5.5-4.5 10-10 10s-10-4.5-10-10c0-20.2 16.4-36.6 36.6-36.6s36.6 16.4 36.6 36.6c0 5.5-4.5 10-10 10z" fill="#231815" p-id="2517"></path><path d="M509.4 22.8c-152.7 0-276.6 43-276.6 96.1S356.6 215 509.4 215 786 172 786 118.9 662.1 22.8 509.4 22.8z m0 154.9c-113.7 0-220.6-26.3-220.6-58.8s106.9-58.8 220.6-58.8S730 86.4 730 118.9c-0.1 32.4-106.9 58.8-220.6 58.8z" fill="#FFE20D" p-id="2518"></path><path d="M509.4 225c-75 0-145.6-10.2-198.8-28.7-56.6-19.7-87.7-47.2-87.7-77.4 0-30.3 31.2-57.8 87.7-77.4C363.8 23 434.4 12.8 509.4 12.8c75 0 145.6 10.2 198.8 28.7 56.6 19.7 87.7 47.2 87.7 77.4 0 30.3-31.2 57.8-87.7 77.4C655 214.8 584.3 225 509.4 225z m0-192.2c-72.8 0-141.1 9.8-192.3 27.6-46.5 16.2-74.3 38-74.3 58.5s27.8 42.4 74.3 58.5c51.2 17.8 119.5 27.6 192.3 27.6s141.1-9.8 192.3-27.6c46.5-16.2 74.3-38 74.3-58.5s-27.8-42.4-74.3-58.5c-51.3-17.8-119.5-27.6-192.3-27.6z m0 154.9c-55.9 0-112.6-6.4-155.4-17.5-49.9-13-75.1-30.2-75.1-51.2 0-21 25.3-38.3 75.1-51.2 42.9-11.1 99.5-17.5 155.4-17.5S622 56.7 664.8 67.8c49.9 13 75.1 30.2 75.1 51.2 0 21-25.3 38.3-75.1 51.2-42.9 11.1-99.5 17.5-155.4 17.5z m0-117.6c-54.3 0-109.1 6.2-150.4 16.9-41.3 10.7-60.2 24.1-60.2 31.9 0 7.8 18.8 21.1 60.2 31.9 41.3 10.7 96.1 16.9 150.4 16.9s109.1-6.2 150.4-16.9c41.3-10.7 60.2-24.1 60.2-31.9 0-7.8-18.8-21.1-60.2-31.9-41.3-10.7-96.2-16.9-150.4-16.9z" fill="#231815" p-id="2519"></path></svg>