<?xml version="1.0" standalone="no"?><!DOCTYPE svg PUBLIC "-//W3C//DTD SVG 1.1//EN" "http://www.w3.org/Graphics/SVG/1.1/DTD/svg11.dtd"><svg t="1514864232382" class="icon" style="" viewBox="0 0 1024 1024" version="1.1" xmlns="http://www.w3.org/2000/svg" p-id="1956" xmlns:xlink="http://www.w3.org/1999/xlink" width="200" height="200"><defs><style type="text/css"></style></defs><path d="M512.9 449.6m-427.9 0a427.9 427.9 0 1 0 855.8 0 427.9 427.9 0 1 0-855.8 0Z" fill="#F2CF3D" p-id="1957"></path><path d="M512.9 887.6c-59.1 0-116.5-11.6-170.5-34.4-52.1-22.1-99-53.6-139.2-93.8-40.2-40.2-71.8-87-93.8-139.2C86.6 566.1 75 508.7 75 449.6s11.6-116.5 34.4-170.5c22.1-52.1 53.6-99 93.8-139.2 40.2-40.2 87-71.8 139.2-93.8 54-22.8 111.3-34.4 170.5-34.4s116.5 11.6 170.5 34.4c52.1 22.1 99 53.6 139.2 93.8 40.2 40.2 71.8 87 93.8 139.2 22.8 54 34.4 111.3 34.4 170.5s-11.6 116.5-34.4 170.5c-22.1 52.1-53.6 99-93.8 139.2-40.2 40.2-87 71.8-139.2 93.8-54 22.9-111.3 34.5-170.5 34.5z m0-855.9c-56.4 0-111.2 11-162.7 32.8-49.8 21-94.5 51.2-132.8 89.6-38.4 38.4-68.5 83.1-89.6 132.8C106.1 338.5 95 393.2 95 449.6s11 111.2 32.8 162.7c21 49.8 51.2 94.5 89.6 132.8 38.4 38.4 83.1 68.5 132.8 89.6 51.5 21.8 106.2 32.8 162.7 32.8 56.4 0 111.2-11 162.7-32.8 49.8-21 94.5-51.2 132.8-89.6s68.6-83 89.6-132.8c21.8-51.5 32.8-106.2 32.8-162.7S919.8 338.5 898 287c-21-49.8-51.2-94.5-89.6-132.8-38.4-38.4-83.1-68.5-132.8-89.6-51.5-21.8-106.2-32.9-162.7-32.9z" fill="#231815" p-id="1958"></path><path d="M512.9 415.3m-393.6 0a393.6 393.6 0 1 0 787.2 0 393.6 393.6 0 1 0-787.2 0Z" fill="#FFE20D" p-id="1959"></path><path d="M512.9 887.6c-59.1 0-116.5-11.6-170.5-34.4-52.1-22.1-99-53.6-139.2-93.8-40.2-40.2-71.8-87-93.8-139.2C86.6 566.1 75 508.7 75 449.6s11.6-116.5 34.4-170.5c22.1-52.1 53.6-99 93.8-139.2 40.2-40.2 87-71.8 139.2-93.8 54-22.8 111.3-34.4 170.5-34.4s116.5 11.6 170.5 34.4c52.1 22.1 99 53.6 139.2 93.8 40.2 40.2 71.8 87 93.8 139.2 22.8 54 34.4 111.3 34.4 170.5s-11.6 116.5-34.4 170.5c-22.1 52.1-53.6 99-93.8 139.2-40.2 40.2-87 71.8-139.2 93.8-54 22.9-111.3 34.5-170.5 34.5z m0-855.9c-56.4 0-111.2 11-162.7 32.8-49.8 21-94.5 51.2-132.8 89.6-38.4 38.4-68.5 83.1-89.6 132.8C106.1 338.5 95 393.2 95 449.6s11 111.2 32.8 162.7c21 49.8 51.2 94.5 89.6 132.8 38.4 38.4 83.1 68.5 132.8 89.6 51.5 21.8 106.2 32.8 162.7 32.8 56.4 0 111.2-11 162.7-32.8 49.8-21 94.5-51.2 132.8-89.6s68.6-83 89.6-132.8c21.8-51.5 32.8-106.2 32.8-162.7S919.8 338.5 898 287c-21-49.8-51.2-94.5-89.6-132.8-38.4-38.4-83.1-68.5-132.8-89.6-51.5-21.8-106.2-32.9-162.7-32.9z" fill="#231815" p-id="1960"></path><path d="M377 124.7a135.9 44 0 1 0 271.8 0 135.9 44 0 1 0-271.8 0Z" fill="#FFF0B3" p-id="1961"></path><path d="M512.9 620.3c-69.2 0-134-8.2-189.8-22.5-20.1-5.2-39.1 12-34.8 31.6 22 100 114.2 175 224.6 175s202.5-75 224.6-175c4.3-19.6-14.7-36.7-34.8-31.6-55.8 14.3-120.6 22.5-189.8 22.5z" fill="#FFA6D7" p-id="1962"></path><path d="M512.9 814.4c-55.2 0-109-18.5-151.6-52.2-42.1-33.2-71.5-79.7-82.7-130.7-2.7-12.2 1.2-24.9 10.4-33.8 9.8-9.4 23.5-13 36.7-9.6 56.6 14.5 121.4 22.2 187.3 22.2s130.7-7.7 187.3-22.2c13.2-3.4 26.9 0.2 36.7 9.6 9.2 8.9 13.1 21.5 10.4 33.8-11.2 51.1-40.6 97.5-82.7 130.7-42.8 33.6-96.6 52.2-151.8 52.2z m-197-207.6c-4.8 0-9.5 1.8-13 5.3-4.2 4.1-6 9.6-4.7 15.1 10.3 46.6 37.1 88.9 75.6 119.3 39.1 30.9 88.5 47.9 139.2 47.9 50.7 0 100.1-17 139.2-47.9 38.5-30.4 65.3-72.8 75.6-119.3 1.2-5.5-0.5-11-4.7-15.1-4.7-4.6-11.4-6.3-17.8-4.6-58.2 14.9-124.7 22.8-192.2 22.8-67.6 0-134-7.9-192.2-22.8-1.8-0.5-3.4-0.7-5-0.7z" fill="#231815" p-id="1963"></path><path d="M660.6 752.5c-39.9-32.4-91.4-51.9-147.7-51.9s-107.8 19.5-147.7 51.9c39.9 32.4 91.4 51.9 147.7 51.9s107.8-19.6 147.7-51.9z" fill="#FF66C1" p-id="1964"></path><path d="M512.9 814.4c-56.2 0-110.9-19.2-154-54.1-2.3-1.9-3.7-4.8-3.7-7.8s1.4-5.9 3.7-7.8c43-34.9 97.7-54.1 154-54.1 56.2 0 110.9 19.2 154 54.1 2.3 1.9 3.7 4.8 3.7 7.8s-1.4 5.9-3.7 7.8c-43 34.8-97.7 54.1-154 54.1z m-131.2-61.9c37.8 27.1 83.9 41.9 131.2 41.9 47.3 0 93.4-14.8 131.2-41.9-37.8-27.1-83.9-41.9-131.2-41.9-47.3 0-93.4 14.8-131.2 41.9z" fill="#231815" p-id="1965"></path><path d="M227.8 555.8a50.7 31.4 0 1 0 101.4 0 50.7 31.4 0 1 0-101.4 0Z" fill="#FFA178" p-id="1966"></path><path d="M696.7 555.8a50.7 31.4 0 1 0 101.4 0 50.7 31.4 0 1 0-101.4 0Z" fill="#FFA178" p-id="1967"></path><path d="M178.8 972.9a334.1 34.2 0 1 0 668.2 0 334.1 34.2 0 1 0-668.2 0Z" fill="#E5E5E5" p-id="1968"></path><path d="M313.4 468.4c-5.5 0-10-4.5-10-10 0-13.7-11.2-24.9-24.9-24.9s-24.9 11.2-24.9 24.9c0 5.5-4.5 10-10 10s-10-4.5-10-10c0-24.8 20.2-44.9 44.9-44.9s44.9 20.2 44.9 44.9c0 5.5-4.5 10-10 10zM782.3 468.4c-5.5 0-10-4.5-10-10 0-13.7-11.2-24.9-24.9-24.9s-24.9 11.2-24.9 24.9c0 5.5-4.5 10-10 10s-10-4.5-10-10c0-24.8 20.2-44.9 44.9-44.9s44.9 20.2 44.9 44.9c0 5.5-4.4 10-10 10z" fill="#231815" p-id="1969"></path></svg>