<?xml version="1.0" standalone="no"?><!DOCTYPE svg PUBLIC "-//W3C//DTD SVG 1.1//EN" "http://www.w3.org/Graphics/SVG/1.1/DTD/svg11.dtd"><svg t="1514864294634" class="icon" style="" viewBox="0 0 1024 1024" version="1.1" xmlns="http://www.w3.org/2000/svg" p-id="3615" xmlns:xlink="http://www.w3.org/1999/xlink" width="200" height="200"><defs><style type="text/css"></style></defs><path d="M919.5 373.1c0 224.7-215.7 473.7-406.8 473.7s-406.8-249-406.8-473.7S288 19.8 512.7 19.8s406.8 128.6 406.8 353.3z" fill="#2DAD88" p-id="3616"></path><path d="M512.7 856.8c-48.1 0-98.2-14.7-149.1-43.7-47.2-26.9-93.4-65.8-133.5-112.3-40.1-46.6-73.5-100.1-96.7-154.9-24.9-58.9-37.5-117-37.5-172.7 0-110 42.5-202.9 122.8-268.6 37.5-30.7 82.1-54.4 132.6-70.6 50-16 104.3-24.1 161.4-24.1S624.1 18 674.1 34c50.5 16.2 95.1 39.9 132.6 70.6 80.4 65.7 122.8 158.6 122.8 268.6 0 55.7-12.6 113.8-37.5 172.7-23.2 54.8-56.6 108.4-96.7 154.9-40.1 46.6-86.3 85.4-133.5 112.3-50.8 29-101 43.7-149.1 43.7z m0-827c-110.4 0-210.3 32-281.3 90.1-75.6 61.8-115.5 149.4-115.5 253.2 0 53 12.1 108.5 35.9 164.9 22.4 52.9 54.7 104.7 93.4 149.7 38.6 44.8 83 82.2 128.3 108 47.8 27.3 94.7 41.1 139.2 41.1 44.6 0 91.4-13.8 139.2-41.1 45.3-25.8 89.6-63.2 128.3-108 38.8-45 71.1-96.8 93.4-149.7 23.8-56.4 35.9-111.9 35.9-164.9 0-103.8-39.9-191.3-115.5-253.2-71-58.1-170.9-90.1-281.3-90.1z" fill="#231815" p-id="3617"></path><path d="M919.5 335.4c0 200.7-215.7 421.1-406.8 421.1S105.9 536.1 105.9 335.4 288 19.8 512.7 19.8s406.8 114.9 406.8 315.6z" fill="#17DDA9" p-id="3618"></path><path d="M512.7 856.8c-48.1 0-98.2-14.7-149.1-43.7-47.2-26.9-93.4-65.8-133.5-112.3-40.1-46.6-73.5-100.1-96.7-154.9-24.9-58.9-37.5-117-37.5-172.7 0-110 42.5-202.9 122.8-268.6 37.5-30.7 82.1-54.4 132.6-70.6 50-16 104.3-24.1 161.4-24.1S624.1 18 674.1 34c50.5 16.2 95.1 39.9 132.6 70.6 80.4 65.7 122.8 158.6 122.8 268.6 0 55.7-12.6 113.8-37.5 172.7-23.2 54.8-56.6 108.4-96.7 154.9-40.1 46.6-86.3 85.4-133.5 112.3-50.8 29-101 43.7-149.1 43.7z m0-827c-110.4 0-210.3 32-281.3 90.1-75.6 61.8-115.5 149.4-115.5 253.2 0 53 12.1 108.5 35.9 164.9 22.4 52.9 54.7 104.7 93.4 149.7 38.6 44.8 83 82.2 128.3 108 47.8 27.3 94.7 41.1 139.2 41.1 44.6 0 91.4-13.8 139.2-41.1 45.3-25.8 89.6-63.2 128.3-108 38.8-45 71.1-96.8 93.4-149.7 23.8-56.4 35.9-111.9 35.9-164.9 0-103.8-39.9-191.3-115.5-253.2-71-58.1-170.9-90.1-281.3-90.1z" fill="#231815" p-id="3619"></path><path d="M371.4 88.7a141.3 45.7 0 1 0 282.6 0 141.3 45.7 0 1 0-282.6 0Z" fill="#75F9C6" p-id="3620"></path><path d="M512.7 644.8c-39.6 0-77.5-8.7-112.6-25.9-5-2.4-7-8.4-4.6-13.4 2.4-5 8.4-7 13.4-4.6 32.3 15.9 67.2 23.9 103.8 23.9 36.5 0 71.5-8 103.8-23.9 5-2.4 11-0.4 13.4 4.6s0.4 11-4.6 13.4c-35.1 17.2-72.9 25.9-112.6 25.9z" fill="#231815" p-id="3621"></path><path d="M165.3 970.6a347.4 35.5 0 1 0 694.8 0 347.4 35.5 0 1 0-694.8 0Z" fill="#E5E5E5" p-id="3622"></path><path d="M427.3 393.1c-2.7 20.2-19.2 36.8-39.4 39.4-38.1 5-99.6 6.5-133.9-27.9-52.2-52.2-61.9-127-21.7-167.2s115-30.5 167.2 21.7c34.2 34.4 32.8 95.9 27.8 134z" fill="#E6C0FF" p-id="3623"></path><path d="M348.8 445.2c-10.7 0-21-0.7-30.7-2-30.5-4.1-54.5-14.7-71.3-31.5-26.8-26.8-43.9-60.1-48.3-93.9-4.5-34.7 4.9-65.8 26.6-87.4 21.7-21.7 52.7-31.1 87.4-26.6 33.8 4.4 67.1 21.5 93.9 48.3 16.8 16.8 27.4 40.8 31.5 71.3 2.9 21.2 2.6 45.1-0.8 71-3.2 24.6-23.4 44.8-48 48-14 1.9-27.5 2.8-40.3 2.8z m-52.6-222.5c-22 0-42.1 7.1-56.9 21.9-36.2 36.2-26.5 104.9 21.7 153 31.9 31.9 92.4 29.4 125.5 25 15.8-2.1 28.7-15 30.8-30.8 4.4-33.2 6.9-93.6-25-125.5-28.5-28.6-64.2-43.6-96.1-43.6z" fill="#231815" p-id="3624"></path><path d="M423.8 402.9c-3.2 18-18.6 33.3-36.6 36.6-33.9 6.1-88.4 10-117.3-18.9-43.9-43.9-49.2-109.7-12-147s103.1-31.9 147 12c28.9 28.9 24.9 83.4 18.9 117.3z" fill="#C987F9" p-id="3625"></path><path d="M348.8 445.2c-10.7 0-21-0.7-30.7-2-30.5-4.1-54.5-14.7-71.3-31.5-26.8-26.8-43.9-60.1-48.3-93.9-4.5-34.7 4.9-65.8 26.6-87.4 21.7-21.7 52.7-31.1 87.4-26.6 33.8 4.4 67.1 21.5 93.9 48.3 16.8 16.8 27.4 40.8 31.5 71.3 2.9 21.2 2.6 45.1-0.8 71-3.2 24.6-23.4 44.8-48 48-14 1.9-27.5 2.8-40.3 2.8z m-52.6-222.5c-22 0-42.1 7.1-56.9 21.9-36.2 36.2-26.5 104.9 21.7 153 31.9 31.9 92.4 29.4 125.5 25 15.8-2.1 28.7-15 30.8-30.8 4.4-33.2 6.9-93.6-25-125.5-28.5-28.6-64.2-43.6-96.1-43.6z" fill="#231815" p-id="3626"></path><path d="M598.2 393.1c2.7 20.2 19.2 36.8 39.4 39.4 38.1 5 99.6 6.5 133.9-27.9 52.2-52.2 61.9-127 21.7-167.2S678.2 207 626 259.2c-34.3 34.3-32.8 95.8-27.8 133.9z" fill="#E6C0FF" p-id="3627"></path><path d="M676.6 445.2c-12.8 0-26.3-0.9-40.3-2.8-24.6-3.2-44.8-23.4-48-48-3.4-25.9-3.7-49.8-0.8-71 4.1-30.5 14.7-54.5 31.5-71.3 26.8-26.8 60.1-43.9 93.9-48.3 34.7-4.5 65.8 4.9 87.4 26.6 21.7 21.7 31.1 52.7 26.6 87.4-4.4 33.8-21.5 67.1-48.3 93.9-16.8 16.8-40.8 27.4-71.3 31.5-9.7 1.4-19.9 2-30.7 2z m52.7-222.5c-31.9 0-67.6 15-96.2 43.6-31.9 31.9-29.4 92.4-25 125.5 2.1 15.8 15 28.7 30.8 30.8 33.2 4.4 93.6 6.9 125.5-25 48.2-48.2 57.9-116.8 21.7-153-14.7-14.8-34.9-21.9-56.8-21.9z" fill="#231815" p-id="3628"></path><path d="M601.7 402.9c3.2 18 18.6 33.3 36.6 36.6 33.9 6.1 88.4 10 117.3-18.9 43.9-43.9 49.2-109.7 12-147s-103.1-31.9-147 12c-28.9 28.9-25 83.4-18.9 117.3z" fill="#C987F9" p-id="3629"></path><path d="M676.6 445.2c-12.8 0-26.3-0.9-40.3-2.8-24.6-3.2-44.8-23.4-48-48-3.4-25.9-3.7-49.8-0.8-71 4.1-30.5 14.7-54.5 31.5-71.3 26.8-26.8 60.1-43.9 93.9-48.3 34.7-4.5 65.8 4.9 87.4 26.6 21.7 21.7 31.1 52.7 26.6 87.4-4.4 33.8-21.5 67.1-48.3 93.9-16.8 16.8-40.8 27.4-71.3 31.5-9.7 1.4-19.9 2-30.7 2z m52.7-222.5c-31.9 0-67.6 15-96.2 43.6-31.9 31.9-29.4 92.4-25 125.5 2.1 15.8 15 28.7 30.8 30.8 33.2 4.4 93.6 6.9 125.5-25 48.2-48.2 57.9-116.8 21.7-153-14.7-14.8-34.9-21.9-56.8-21.9z" fill="#231815" p-id="3630"></path><path d="M216.2 523a52.7 32.6 0 1 0 105.4 0 52.7 32.6 0 1 0-105.4 0Z" fill="#2DAD88" p-id="3631"></path><path d="M703.8 523a52.7 32.6 0 1 0 105.4 0 52.7 32.6 0 1 0-105.4 0Z" fill="#2DAD88" p-id="3632"></path><path d="M490.3 522.3c-5.5 0-10-4.5-10-10V486c0-5.5 4.5-10 10-10s10 4.5 10 10v26.3c0 5.5-4.5 10-10 10zM535.1 522.3c-5.5 0-10-4.5-10-10V486c0-5.5 4.5-10 10-10s10 4.5 10 10v26.3c0 5.5-4.4 10-10 10z" fill="#231815" p-id="3633"></path></svg>